<svg width="375" height="604" viewBox="0 0 375 604" fill="none" xmlns="http://www.w3.org/2000/svg">
<path d="M430 13.6404C411.059 0.719775 363.93 -13.4929 326.947 33.0213C280.717 91.1641 261.455 134.233 195 145M496 586.409C476.333 603.368 427.4 622.022 389 560.972C341 484.66 321 428.132 252 414M-94 217.269C-70.7832 207.94 -14.9469 197.522 22.6643 230.485C69.6783 271.69 97.5385 295.789 155 280.241" stroke="white" stroke-linecap="round"/>
<path d="M197.5 23C197.5 31.5604 190.56 38.5 182 38.5C173.44 38.5 166.5 31.5604 166.5 23C166.5 14.4396 173.44 7.5 182 7.5C190.56 7.5 197.5 14.4396 197.5 23ZM109.5 542C109.5 563.809 91.5973 581.5 69.5 581.5C47.4027 581.5 29.5 563.809 29.5 542C29.5 520.191 47.4027 502.5 69.5 502.5C91.5973 502.5 109.5 520.191 109.5 542ZM392.5 135.5C392.5 145.993 383.993 154.5 373.5 154.5C363.007 154.5 354.5 145.993 354.5 135.5C354.5 125.007 363.007 116.5 373.5 116.5C383.993 116.5 392.5 125.007 392.5 135.5Z" stroke="white"/>
</svg>
