<svg width="375" height="743" viewBox="0 0 375 743" fill="none" xmlns="http://www.w3.org/2000/svg">
<path d="M519 13.6404C500.059 0.719775 452.93 -13.4929 415.947 33.0213C369.717 91.1641 350.455 134.233 284 145M-148 172.88C-113.688 159.916 -31.1664 145.44 24.4196 191.246C93.9021 248.504 135.077 281.993 220 260.387M471 763.409C451.333 780.368 402.4 799.022 364 737.972C316 661.66 296 605.132 227 591M287 23C287 31.8366 279.837 39 271 39C262.163 39 255 31.8366 255 23C255 14.1634 262.163 7 271 7C279.837 7 287 14.1634 287 23ZM103 73.5C103 84.2696 94.2696 93 83.5 93C72.7304 93 64 84.2696 64 73.5C64 62.7304 72.7304 54 83.5 54C94.2696 54 103 62.7304 103 73.5ZM52 725C52 747.091 33.8675 765 11.5 765C-10.8675 765 -29 747.091 -29 725C-29 702.909 -10.8675 685 11.5 685C33.8675 685 52 702.909 52 725Z" stroke="white" stroke-linecap="round"/>
</svg>
