<svg width="327" height="300" viewBox="0 0 327 300" fill="none" xmlns="http://www.w3.org/2000/svg">
<g filter="url(#filter0_b_601_13562)">
<path d="M0 64.4C0 41.6204 0 30.2306 4.50346 21.561C8.29848 14.2553 14.2553 8.29848 21.561 4.50346C30.2306 0 41.6204 0 64.4 0H262.6C285.38 0 296.769 0 305.439 4.50346C312.745 8.29848 318.702 14.2553 322.497 21.561C327 30.2306 327 41.6204 327 64.4V235.6C327 258.38 327 269.769 322.497 278.439C318.702 285.745 312.745 291.702 305.439 295.497C296.769 300 285.38 300 262.6 300H64.4C41.6204 300 30.2306 300 21.561 295.497C14.2553 291.702 8.29848 285.745 4.50346 278.439C0 269.769 0 258.38 0 235.6V64.4Z" fill="white"/>
<path d="M64.4 1H262.6C274.007 1 282.5 1.0008 289.228 1.5595C295.944 2.11721 300.81 3.22565 304.978 5.39088C312.101 9.09102 317.909 14.8989 321.609 22.022C323.774 26.1902 324.883 31.0563 325.44 37.772C325.999 44.4996 326 52.9934 326 64.4V235.6C326 247.007 325.999 255.5 325.44 262.228C324.883 268.944 323.774 273.81 321.609 277.978C317.909 285.101 312.101 290.909 304.978 294.609C300.81 296.774 295.944 297.883 289.228 298.44C282.5 298.999 274.007 299 262.6 299H64.4C52.9934 299 44.4996 298.999 37.772 298.44C31.0563 297.883 26.1902 296.774 22.022 294.609C14.8989 290.909 9.09102 285.101 5.39088 277.978C3.22565 273.81 2.11721 268.944 1.5595 262.228C1.0008 255.5 1 247.007 1 235.6V64.4C1 52.9934 1.0008 44.4996 1.5595 37.772C2.11721 31.0563 3.22565 26.1902 5.39088 22.022C9.09102 14.8989 14.8989 9.09102 22.022 5.39088C26.1902 3.22565 31.0563 2.11721 37.772 1.5595C44.4996 1.0008 52.9934 1 64.4 1Z" stroke="white" stroke-width="2"/>
</g>
<defs>
<filter id="filter0_b_601_13562" x="-53" y="-53" width="433" height="406" filterUnits="userSpaceOnUse" color-interpolation-filters="sRGB">
<feFlood flood-opacity="0" result="BackgroundImageFix"/>
<feGaussianBlur in="BackgroundImageFix" stdDeviation="26.5"/>
<feComposite in2="SourceAlpha" operator="in" result="effect1_backgroundBlur_601_13562"/>
<feBlend mode="normal" in="SourceGraphic" in2="effect1_backgroundBlur_601_13562" result="shape"/>
</filter>
</defs>
</svg>
