<svg width="132" height="130" viewBox="0 0 132 130" fill="none" xmlns="http://www.w3.org/2000/svg">
<g filter="url(#filter0_d_602_6886)">
<path d="M71.8749 55.1541H62.034C62.034 53.1425 62.1711 51.3709 62.4455 49.8393C62.7426 48.2848 63.2455 46.8904 63.9542 45.656C64.6628 44.4216 65.6229 43.2786 66.8345 42.2271C67.9088 41.3356 68.8346 40.4784 69.6119 39.6554C70.3891 38.8325 70.9834 37.9981 71.3949 37.1523C71.8064 36.3065 72.0121 35.4036 72.0121 34.4435C72.0121 33.2548 71.8407 32.2833 71.4978 31.5289C71.1777 30.7746 70.6863 30.2145 70.0233 29.8488C69.3833 29.4602 68.5718 29.2659 67.5888 29.2659C66.7887 29.2659 66.0344 29.4602 65.3257 29.8488C64.64 30.2374 64.0799 30.8432 63.6456 31.6661C63.2112 32.4662 62.9712 33.5291 62.9255 34.855H51.3015C51.3701 31.4489 52.1245 28.6829 53.5646 26.557C55.0276 24.4082 56.9706 22.8424 59.3937 21.8594C61.8397 20.8536 64.5714 20.3507 67.5888 20.3507C70.9263 20.3507 73.7951 20.865 76.1954 21.8937C78.5956 22.9224 80.4358 24.454 81.7159 26.4884C82.996 28.5001 83.6361 30.9803 83.6361 33.9292C83.6361 35.8951 83.2589 37.6095 82.5045 39.0725C81.773 40.5127 80.7787 41.8614 79.5214 43.1186C78.287 44.353 76.904 45.6789 75.3724 47.0962C74.0466 48.262 73.1436 49.4507 72.6636 50.6622C72.1835 51.8509 71.9207 53.3482 71.8749 55.1541ZM60.6281 65.578C60.6281 63.9321 61.2225 62.5605 62.4112 61.4633C63.5999 60.3432 65.1429 59.7831 67.0402 59.7831C68.9375 59.7831 70.4805 60.3432 71.6692 61.4633C72.8579 62.5605 73.4522 63.9321 73.4522 65.578C73.4522 67.2238 72.8579 68.6068 71.6692 69.7269C70.4805 70.8242 68.9375 71.3728 67.0402 71.3728C65.1429 71.3728 63.5999 70.8242 62.4112 69.7269C61.2225 68.6068 60.6281 67.2238 60.6281 65.578Z" fill="#FCC213"/>
</g>
<g filter="url(#filter1_d_602_6886)">
<path d="M92.8861 65.3084L87.3588 62.3662C87.9602 61.2363 88.5669 60.2823 89.1789 59.504C89.8105 58.7198 90.5099 58.087 91.277 57.6055C92.0441 57.124 92.925 56.7691 93.9199 56.5407C94.7899 56.3612 95.5662 56.1565 96.2488 55.9267C96.9314 55.6968 97.5146 55.4059 97.9986 55.0538C98.4826 54.7018 98.8681 54.2562 99.1552 53.7169C99.5106 53.0492 99.7047 52.4523 99.7377 51.9261C99.7835 51.4067 99.6749 50.9452 99.4119 50.5416C99.1686 50.1319 98.7708 49.7802 98.2188 49.4863C97.7694 49.2471 97.2876 49.1307 96.7734 49.1371C96.272 49.1503 95.7763 49.3231 95.2863 49.6555C94.8032 49.975 94.3506 50.5003 93.9285 51.2313L87.3996 47.756C88.4565 45.8634 89.7071 44.5354 91.1516 43.7719C92.6158 43.0024 94.1753 42.7038 95.8302 42.8762C97.5047 43.0425 99.1894 43.5768 100.884 44.4789C102.759 45.4767 104.216 46.6234 105.257 47.9187C106.297 49.2141 106.873 50.6246 106.984 52.15C107.101 53.6626 106.719 55.247 105.838 56.9033C105.25 58.0075 104.526 58.8577 103.665 59.4539C102.823 60.0441 101.861 60.5043 100.779 60.8346C99.7169 61.1588 98.5437 61.4901 97.2597 61.8282C96.1665 62.0866 95.3039 62.4843 94.6721 63.0213C94.047 63.5454 93.4517 64.3078 92.8861 65.3084ZM83.4526 67.8007C83.9447 66.8762 84.6886 66.2835 85.6843 66.0226C86.6868 65.7489 87.7209 65.8957 88.7866 66.4629C89.8523 67.0302 90.5515 67.8061 90.8843 68.7906C91.2239 69.7623 91.1476 70.7103 90.6556 71.6348C90.1635 72.5592 89.4162 73.1583 88.4136 73.4321C87.4179 73.693 86.3872 73.5398 85.3216 72.9725C84.2559 72.4053 83.5532 71.6358 83.2137 70.6641C82.8809 69.6796 82.9605 68.7251 83.4526 67.8007Z" fill="#C1242D"/>
</g>
<g filter="url(#filter2_d_602_6886)">
<path d="M39.1153 65.3084L44.6427 62.3662C44.0413 61.2363 43.4346 60.2823 42.8226 59.504C42.1909 58.7198 41.4916 58.087 40.7245 57.6055C39.9574 57.124 39.0764 56.7691 38.0815 56.5407C37.2115 56.3612 36.4353 56.1565 35.7527 55.9267C35.0701 55.6968 34.4868 55.4059 34.0028 55.0538C33.5188 54.7018 33.1333 54.2562 32.8463 53.7169C32.4909 53.0492 32.2967 52.4523 32.2638 51.9261C32.218 51.4067 32.3266 50.9452 32.5896 50.5416C32.8329 50.1319 33.2306 49.7802 33.7827 49.4863C34.2321 49.2471 34.7139 49.1307 35.2281 49.1371C35.7295 49.1503 36.2251 49.3231 36.7151 49.6555C37.1983 49.975 37.6509 50.5003 38.073 51.2313L44.6018 47.756C43.545 45.8634 42.2943 44.5354 40.8498 43.7719C39.3857 43.0024 37.8262 42.7038 36.1713 42.8762C34.4968 43.0425 32.8121 43.5768 31.1173 44.4789C29.2427 45.4767 27.7851 46.6234 26.7446 47.9187C25.704 49.2141 25.1283 50.6246 25.0176 52.15C24.9 53.6626 25.282 55.247 26.1637 56.9033C26.7514 58.0075 27.4759 58.8577 28.337 59.4539C29.1784 60.0441 30.1401 60.5043 31.2222 60.8346C32.2846 61.1588 33.4578 61.4901 34.7418 61.8282C35.835 62.0866 36.6975 62.4843 37.3294 63.0213C37.9544 63.5454 38.5497 64.3078 39.1153 65.3084ZM48.5488 67.8007C48.0568 66.8762 47.3129 66.2835 46.3172 66.0226C45.3146 65.7489 44.2805 65.8957 43.2148 66.4629C42.1492 67.0302 41.45 67.8061 41.1172 68.7906C40.7776 69.7623 40.8538 70.7103 41.3459 71.6348C41.838 72.5592 42.5853 73.1583 43.5878 73.4321C44.5835 73.693 45.6142 73.5398 46.6799 72.9725C47.7456 72.4053 48.4482 71.6358 48.7878 70.6641C49.1206 69.6796 49.0409 68.7251 48.5488 67.8007Z" fill="black"/>
</g>
<path d="M69.1019 55.9735L69.9864 55.984L70.0192 55.1C70.0838 53.3624 70.3526 51.9844 70.7914 50.9337L70.7914 50.9338L70.7937 50.9282C71.2178 49.8938 72.0286 48.8268 73.296 47.7386L73.3047 47.7311L73.3133 47.7234C74.8685 46.3179 76.2758 45.0004 77.5345 43.771C78.8673 42.4693 79.9371 41.0575 80.7339 39.5343C81.5845 37.9305 82.0061 36.0739 82.0306 33.9924C82.067 30.913 81.4292 28.2468 80.0634 26.0426C78.7029 23.8236 76.7327 22.154 74.1925 21.0297C71.6657 19.9113 68.6756 19.3481 65.2483 19.3076C62.1301 19.2708 59.2737 19.7571 56.6922 20.7828C54.093 21.8021 51.9882 23.4573 50.3972 25.7358L50.396 25.7375C48.8032 28.0301 47.986 30.9728 47.8735 34.4969L47.8439 35.4221L48.7695 35.433L60.3927 35.5702L61.2691 35.5805L61.3097 34.705C61.3673 33.4608 61.6021 32.5541 61.9532 31.9251L61.9533 31.9251L61.9584 31.9158C62.3335 31.2249 62.7845 30.7659 63.2951 30.483C63.8734 30.1759 64.4778 30.0289 65.1216 30.0365C65.9892 30.0468 66.6229 30.226 67.0799 30.5108L67.0958 30.5208L67.1122 30.5301C67.5792 30.795 67.9343 31.1962 68.175 31.7828L68.1794 31.7935L68.184 31.804C68.4482 32.404 68.6002 33.2369 68.587 34.3481C68.5773 35.1736 68.3925 35.9384 68.034 36.6537C67.6613 37.3975 67.1159 38.1509 66.3805 38.9114C65.6242 39.6935 64.7166 40.5151 63.654 41.3758L63.6462 41.3822L63.6385 41.3887C62.347 42.4832 61.3039 43.6908 60.5231 45.0145C59.7434 46.3364 59.1909 47.8212 58.8575 49.4598L58.8574 49.4598L58.8555 49.4702C58.5506 51.0637 58.3894 52.889 58.3652 54.9395L58.3545 55.8467L59.2617 55.8574L69.1019 55.9735ZM69.3424 70.3096L69.3424 70.3096L69.3493 70.3033C70.7366 69.0266 71.4516 67.4123 71.474 65.5188C71.4963 63.6265 70.82 62.0046 69.459 60.7165C68.0909 59.3983 66.321 58.7554 64.2343 58.7308C62.1476 58.7062 60.3629 59.3071 58.9641 60.5927C57.5731 61.8483 56.8587 63.4537 56.8364 65.346C56.8141 67.2396 57.4907 68.8702 58.8476 70.1794L58.8476 70.1794L58.8543 70.1858C60.2239 71.4803 61.9928 72.1095 64.0761 72.134C66.1593 72.1586 67.9426 71.5714 69.3424 70.3096Z" stroke="white" stroke-width="1.81447"/>
<path d="M91.0836 64.9396L91.5772 65.2099L91.86 64.7232C92.4157 63.7665 92.9787 63.0729 93.5393 62.614L93.5422 62.6116C94.0897 62.1573 94.8641 61.8005 95.9013 61.5682L95.9085 61.5666L95.9156 61.5648C97.2093 61.2404 98.3937 60.9211 99.4682 60.6069C100.606 60.2743 101.629 59.8011 102.532 59.1838C103.489 58.5373 104.281 57.6206 104.917 56.4588C105.858 54.74 106.297 53.0519 106.189 51.4055C106.088 49.7524 105.481 48.2256 104.39 46.8346C103.305 45.451 101.794 44.2407 99.8814 43.1933C98.141 42.2403 96.3913 41.6594 94.6346 41.4637C92.87 41.2591 91.1929 41.5595 89.6181 42.3636L89.6169 42.3642C88.0368 43.1757 86.6981 44.5842 85.5812 46.5299L85.288 47.0407L85.8046 47.3236L92.292 50.8757L92.7812 51.1436L93.0657 50.6639C93.4701 49.9823 93.873 49.5433 94.2583 49.295L94.2583 49.295L94.264 49.2913C94.6812 49.0154 95.0718 48.8924 95.4431 48.8862C95.8598 48.8866 96.2432 48.9847 96.6026 49.1815C97.0868 49.4466 97.3891 49.7367 97.5606 50.0334L97.5666 50.0437L97.573 50.0538C97.7561 50.3422 97.8356 50.6737 97.7954 51.0752L97.7947 51.0825L97.7942 51.0898C97.7632 51.5058 97.5995 52.0191 97.2599 52.6393C97.0076 53.1 96.6752 53.4743 96.26 53.7689C95.8282 54.0752 95.2966 54.3353 94.6562 54.5426C93.9976 54.7558 93.2422 54.9459 92.388 55.1117L92.388 55.1115L92.3755 55.1142C91.3228 55.3429 90.3759 55.7093 89.5416 56.2193C88.7085 56.7287 87.9542 57.3975 87.2771 58.2181L87.277 58.2181L87.2728 58.2233C86.6251 59.0273 85.9889 60.0043 85.3622 61.1487L85.085 61.6551L85.5913 61.9323L91.0836 64.9396ZM86.9325 73.0636L86.9325 73.0636L86.9382 73.0622C88.0992 72.7598 88.9834 72.0669 89.562 71.0101C90.1404 69.9538 90.2454 68.8407 89.8661 67.7103C89.4918 66.5608 88.6899 65.6706 87.5252 65.0329C86.3605 64.3952 85.1785 64.1992 84.0085 64.503C82.8518 64.7923 81.9705 65.4805 81.3922 66.5367C80.8135 67.5936 80.7061 68.7118 81.0768 69.8528L81.0767 69.8528L81.0786 69.8584C81.4609 70.995 82.2663 71.8772 83.4291 72.5138C84.5918 73.1505 85.769 73.3538 86.9325 73.0636Z" stroke="white" stroke-width="1.15453"/>
<path d="M40.9181 64.9396L40.4245 65.2099L40.1417 64.7232C39.586 63.7665 39.023 63.0729 38.4624 62.614L38.4595 62.6116C37.912 62.1573 37.1376 61.8005 36.1004 61.5682L36.0932 61.5666L36.0861 61.5648C34.7924 61.2404 33.608 60.9211 32.5335 60.6069C31.3957 60.2743 30.3727 59.8011 29.4698 59.1838C28.5126 58.5373 27.7207 57.6206 27.0846 56.4588C26.1435 54.74 25.7046 53.0519 25.8127 51.4055C25.9134 49.7524 26.5208 48.2256 27.6115 46.8346C28.6963 45.451 30.2074 44.2407 32.1203 43.1933C33.8607 42.2403 35.6104 41.6594 37.3671 41.4637C39.1317 41.2591 40.8088 41.5595 42.3836 42.3636L42.3848 42.3642C43.9649 43.1757 45.3036 44.5842 46.4205 46.5299L46.7137 47.0407L46.1971 47.3236L39.7097 50.8757L39.2205 51.1436L38.936 50.6639C38.5316 49.9823 38.1287 49.5433 37.7434 49.295L37.7434 49.295L37.7377 49.2913C37.3205 49.0154 36.9299 48.8924 36.5586 48.8862C36.1419 48.8866 35.7585 48.9847 35.3991 49.1815C34.9149 49.4466 34.6126 49.7367 34.4411 50.0334L34.4351 50.0437L34.4287 50.0538C34.2456 50.3422 34.1661 50.6737 34.2063 51.0752L34.207 51.0825L34.2075 51.0898C34.2385 51.5058 34.4022 52.0191 34.7418 52.6393C34.9941 53.1 35.3265 53.4743 35.7418 53.7689C36.1735 54.0752 36.7051 54.3353 37.3455 54.5426C38.0041 54.7558 38.7595 54.9459 39.6137 55.1117L39.6137 55.1115L39.6262 55.1142C40.6789 55.3429 41.6258 55.7093 42.4601 56.2193C43.2933 56.7287 44.0475 57.3975 44.7247 58.2181L44.7247 58.2181L44.7289 58.2233C45.3766 59.0273 46.0129 60.0043 46.6395 61.1487L46.9167 61.6551L46.4104 61.9323L40.9181 64.9396ZM45.0693 73.0636L45.0693 73.0636L45.0635 73.0622C43.9025 72.7598 43.0183 72.0669 42.4397 71.0101C41.8613 69.9538 41.7563 68.8407 42.1356 67.7103C42.5099 66.5608 43.3119 65.6706 44.4765 65.0329C45.6412 64.3952 46.8232 64.1992 47.9932 64.503C49.1499 64.7923 50.0312 65.4805 50.6095 66.5367C51.1882 67.5936 51.2956 68.7118 50.9249 69.8528L50.925 69.8528L50.9231 69.8584C50.5408 70.995 49.7354 71.8772 48.5726 72.5138C47.4099 73.1505 46.2327 73.3538 45.0693 73.0636Z" stroke="white" stroke-width="1.15453"/>
<path d="M119 34.3947C116.357 36.0073 109.781 37.7811 104.621 31.9758C98.1707 24.7191 95.4831 19.3438 86.2107 18" stroke="#FCC213" stroke-linecap="round"/>
<path d="M8 71.6188C11.5835 70.0062 20.2019 68.2055 26.0073 73.9033C33.2639 81.0256 37.5642 85.1913 46.4334 82.5037" stroke="#FCC213" stroke-linecap="round"/>
<circle cx="28.8293" cy="22.7034" r="2.85956" stroke="#FCC213"/>
<circle cx="94" cy="79" r="1.5" stroke="#FCC213"/>
<defs>
<filter id="filter0_d_602_6886" x="12.2409" y="0.820408" width="110.456" height="129.143" filterUnits="userSpaceOnUse" color-interpolation-filters="sRGB">
<feFlood flood-opacity="0" result="BackgroundImageFix"/>
<feColorMatrix in="SourceAlpha" type="matrix" values="0 0 0 0 0 0 0 0 0 0 0 0 0 0 0 0 0 0 127 0" result="hardAlpha"/>
<feOffset dy="19.5303"/>
<feGaussianBlur stdDeviation="19.5303"/>
<feComposite in2="hardAlpha" operator="out"/>
<feColorMatrix type="matrix" values="0 0 0 0 0.210031 0 0 0 0 0.0633751 0 0 0 0 0.65 0 0 0 0.4 0"/>
<feBlend mode="normal" in2="BackgroundImageFix" result="effect1_dropShadow_602_6886"/>
<feBlend mode="normal" in="SourceGraphic" in2="effect1_dropShadow_602_6886" result="shape"/>
</filter>
<filter id="filter1_d_602_6886" x="58.1584" y="30.402" width="73.7" height="80.434" filterUnits="userSpaceOnUse" color-interpolation-filters="sRGB">
<feFlood flood-opacity="0" result="BackgroundImageFix"/>
<feColorMatrix in="SourceAlpha" type="matrix" values="0 0 0 0 0 0 0 0 0 0 0 0 0 0 0 0 0 0 127 0" result="hardAlpha"/>
<feOffset dy="12.4269"/>
<feGaussianBlur stdDeviation="12.4269"/>
<feComposite in2="hardAlpha" operator="out"/>
<feColorMatrix type="matrix" values="0 0 0 0 0.210031 0 0 0 0 0.0633751 0 0 0 0 0.65 0 0 0 0.4 0"/>
<feBlend mode="normal" in2="BackgroundImageFix" result="effect1_dropShadow_602_6886"/>
<feBlend mode="normal" in="SourceGraphic" in2="effect1_dropShadow_602_6886" result="shape"/>
</filter>
<filter id="filter2_d_602_6886" x="0.143047" y="30.402" width="73.7" height="80.434" filterUnits="userSpaceOnUse" color-interpolation-filters="sRGB">
<feFlood flood-opacity="0" result="BackgroundImageFix"/>
<feColorMatrix in="SourceAlpha" type="matrix" values="0 0 0 0 0 0 0 0 0 0 0 0 0 0 0 0 0 0 127 0" result="hardAlpha"/>
<feOffset dy="12.4269"/>
<feGaussianBlur stdDeviation="12.4269"/>
<feComposite in2="hardAlpha" operator="out"/>
<feColorMatrix type="matrix" values="0 0 0 0 0.210031 0 0 0 0 0.0633751 0 0 0 0 0.65 0 0 0 0.4 0"/>
<feBlend mode="normal" in2="BackgroundImageFix" result="effect1_dropShadow_602_6886"/>
<feBlend mode="normal" in="SourceGraphic" in2="effect1_dropShadow_602_6886" result="shape"/>
</filter>
</defs>
</svg>
