<svg width="141" height="152" viewBox="0 0 141 152" fill="none" xmlns="http://www.w3.org/2000/svg">
<g clip-path="url(#clip0_1395_9959)">
<path d="M70.6356 149.445C109.114 149.445 140.306 118.362 140.306 80.0197C140.306 41.677 109.114 10.5941 70.6356 10.5941C32.1577 10.5941 0.965088 41.677 0.965088 80.0197C0.965088 118.362 32.1577 149.445 70.6356 149.445Z" fill="#022964"/>
<path d="M94.121 71.9712C94.121 71.9712 96.6639 40.354 80.3434 37.6769C64.0228 34.9996 61.997 81.0835 75.9615 81.7563C89.9259 82.4292 94.121 71.9712 94.121 71.9712Z" fill="#FCD4D0"/>
<path opacity="0.1" d="M75.9614 81.7555C89.9403 82.4713 94.1066 71.9704 94.1066 71.9704C94.1066 71.9704 96.6496 40.353 80.329 37.6759" fill="#111827"/>
<path d="M70.0889 0.67627H33.0522C27.3887 0.67627 22.7976 5.25124 22.7976 10.8948V92.3676C22.7976 98.0112 27.3887 102.586 33.0522 102.586H70.089C75.7523 102.586 80.3436 98.0112 80.3436 92.3676V10.8948C80.3436 5.25124 75.7523 0.67627 70.0889 0.67627Z" fill="#BFDBFE"/>
<path d="M75.6749 11.7789H27.4817V83.7884H75.6749V11.7789Z" fill="#EFF6FF"/>
<path d="M38.953 8.55394C39.921 8.55394 40.7057 7.77197 40.7057 6.80736C40.7057 5.84275 39.921 5.06079 38.953 5.06079C37.9849 5.06079 37.2002 5.84275 37.2002 6.80736C37.2002 7.77197 37.9849 8.55394 38.953 8.55394Z" fill="#3472D9"/>
<path opacity="0.3" d="M61.9109 6.20618H44.8791C44.4665 6.20618 44.1321 6.53948 44.1321 6.95062V7.05084C44.1321 7.46198 44.4665 7.79528 44.8791 7.79528H61.9109C62.3235 7.79528 62.6579 7.46198 62.6579 7.05084V6.95062C62.6579 6.53948 62.3235 6.20618 61.9109 6.20618Z" fill="#3472D9"/>
<path opacity="0.1" d="M76.2565 50.9476C76.2565 50.9476 68.9438 52.6083 71.4006 59.7377C73.8573 66.8673 71.1491 76.6595 69.8418 78.7426C64.0304 87.9479 66.6739 102.586 66.6739 102.586H80.3223C80.3223 102.586 84.0217 55.9797 76.2565 50.9476Z" fill="#111827"/>
<path d="M51.7137 61.7053C60.4179 61.7053 67.4739 54.6739 67.4739 46.0003C67.4739 37.3268 60.4179 30.2954 51.7137 30.2954C43.0095 30.2954 35.9534 37.3268 35.9534 46.0003C35.9534 54.6739 43.0095 61.7053 51.7137 61.7053Z" fill="#3784FB"/>
<path d="M52.2161 36.6429C52.719 36.6429 52.877 36.8219 52.877 37.3587V38.4325C53.7643 38.5246 54.6095 38.8567 55.3211 39.3929C56.0326 39.9291 56.5835 40.649 56.914 41.4746C57.1798 41.9972 57.072 42.2836 56.4759 42.5485L55.3984 43.028C54.8955 43.2714 54.68 43.1568 54.3711 42.6343C54.1449 42.0897 53.7492 41.6316 53.2423 41.3276C52.7355 41.0235 52.1442 40.8894 51.5552 40.9449C49.6876 40.9449 48.8328 41.4962 48.8328 42.7417C48.8826 43.1173 49.0604 43.4643 49.3363 43.7249C49.6121 43.9854 49.9695 44.1438 50.3485 44.1733C50.87 44.2851 51.3977 44.3663 51.9287 44.4167C52.9259 44.4618 53.9108 44.6522 54.8524 44.9821C55.3239 45.1396 55.7621 45.3823 56.1454 45.6979C56.5347 46.1054 56.8382 46.5864 57.0381 47.1126C57.2379 47.6387 57.3301 48.1994 57.3092 48.7617C57.3092 51.1453 55.7073 52.7701 52.877 53.1854V54.3235C52.877 54.8246 52.719 55.0035 52.2161 55.0035H51.0093C50.5064 55.0035 50.3268 54.8246 50.3268 54.3235V53.2069C49.3431 53.1365 48.4017 52.7793 47.62 52.1799C46.8384 51.5803 46.2508 50.765 45.9307 49.8354C45.8838 49.7369 45.8601 49.629 45.8614 49.52C45.8625 49.4111 45.8888 49.3038 45.938 49.2064C45.9873 49.1091 46.0581 49.0242 46.1452 48.9583C46.2323 48.8924 46.3333 48.8471 46.4408 48.8261L47.5183 48.4324C48.0642 48.2391 48.3084 48.3679 48.5454 48.9119C48.7683 49.5009 49.1796 50.0003 49.7159 50.3328C50.2522 50.6653 50.8835 50.8125 51.5121 50.7516C53.5378 50.7516 54.5435 50.1216 54.5435 48.8261C54.5616 48.5281 54.4787 48.2326 54.3079 47.9874C54.1373 47.742 53.8889 47.5609 53.6025 47.4731C52.9091 47.228 52.1827 47.0882 51.4475 47.058C50.439 46.9958 49.446 46.781 48.5023 46.4209C48.0398 46.2583 47.6094 46.016 47.2309 45.7051C46.8374 45.3174 46.5289 44.8526 46.3249 44.34C46.1209 43.8276 46.0258 43.2784 46.0456 42.7274C46.0456 40.3652 47.5398 38.7904 50.3557 38.4325V37.3587C50.3557 36.8577 50.5353 36.6429 51.038 36.6429H52.2161Z" fill="white"/>
<path d="M50.2094 99.1001C53.2999 99.1001 55.8052 96.6035 55.8052 93.5239C55.8052 90.4443 53.2999 87.9478 50.2094 87.9478C47.119 87.9478 44.6135 90.4443 44.6135 93.5239C44.6135 96.6035 47.119 99.1001 50.2094 99.1001Z" fill="#E3EFFF"/>
<path d="M90.4076 64.9491C90.4076 64.9491 85.99 49.0009 81.0693 47.5047C77.0322 46.2735 73.0455 53.4532 77.6142 63.7751C78.5521 65.8561 79.0298 68.1138 79.015 70.395C79.0001 72.6762 78.4929 74.9275 77.5279 76.9962C75.8973 80.4606 74.7983 85.049 76.5366 89.9237C80.193 100.181 90.185 99.0431 94.2436 90.1384C98.3022 81.2338 97.5839 77.0105 90.4076 64.9491Z" fill="#FCD4D0"/>
<path d="M74.281 90.9977L78.6414 151.162L114.429 144.318L96.4345 84.3048L74.281 90.9977Z" fill="#5F9DFC"/>
<path opacity="0.1" d="M92.6129 148.493L84.855 87.7988L74.281 90.9985L78.6414 151.162L92.6129 148.493Z" fill="#111827"/>
</g>
<defs>
<clipPath id="clip0_1395_9959">
<rect width="141" height="152" fill="white"/>
</clipPath>
</defs>
</svg>
