<svg width="164" height="164" viewBox="0 0 164 164" fill="none" xmlns="http://www.w3.org/2000/svg">
<path d="M164 82C164 127.287 127.287 164 82 164C36.7127 164 0 127.287 0 82C0 36.7127 36.7127 0 82 0C127.287 0 164 36.7127 164 82Z" fill="#3784FB" fill-opacity="0.2"/>
<path d="M140 82C140 114.033 114.033 140 82 140C49.9675 140 24 114.033 24 82C24 49.9675 49.9675 24 82 24C114.033 24 140 49.9675 140 82Z" fill="#3784FB"/>
<path fill-rule="evenodd" clip-rule="evenodd" d="M98.3351 65.3353C99.1049 64.5723 100.144 64.1429 101.228 64.1399C102.312 64.1369 103.353 64.5606 104.127 65.3193C104.901 66.0781 105.345 67.1109 105.364 68.1946C105.382 69.2783 104.973 70.3256 104.226 71.1103L82.2696 98.5553C81.8923 98.9618 81.4368 99.2879 80.9306 99.5143C80.4243 99.7407 79.8775 99.8627 79.323 99.873C78.7685 99.8833 78.2176 99.7816 77.7033 99.5741C77.189 99.3666 76.7218 99.0575 76.3296 98.6653L61.7821 84.1123C61.3769 83.7347 61.0518 83.2793 60.8263 82.7733C60.6009 82.2673 60.4797 81.7211 60.4699 81.1672C60.4601 80.6133 60.562 80.0632 60.7695 79.5495C60.9769 79.0359 61.2857 78.5693 61.6774 78.1776C62.0691 77.7859 62.5357 77.4771 63.0493 77.2696C63.563 77.0622 64.1131 76.9603 64.667 76.9701C65.2209 76.9798 65.7671 77.1011 66.2731 77.3265C66.7791 77.552 67.2345 77.877 67.6121 78.2823L79.1291 89.7938L98.2306 65.4563C98.2647 65.4137 98.3015 65.3733 98.3406 65.3353H98.3351Z" fill="white"/>
</svg>
