<svg width="32" height="32" viewBox="0 0 32 32" fill="none" xmlns="http://www.w3.org/2000/svg">
<path d="M9.59995 16C9.59995 16.8487 9.26281 17.6626 8.66269 18.2627C8.06258 18.8628 7.24864 19.2 6.39995 19.2C5.55126 19.2 4.73733 18.8628 4.13721 18.2627C3.53709 17.6626 3.19995 16.8487 3.19995 16C3.19995 15.1513 3.53709 14.3374 4.13721 13.7372C4.73733 13.1371 5.55126 12.8 6.39995 12.8C7.24864 12.8 8.06258 13.1371 8.66269 13.7372C9.26281 14.3374 9.59995 15.1513 9.59995 16ZM19.1999 16C19.1999 16.8487 18.8628 17.6626 18.2627 18.2627C17.6625 18.8628 16.8486 19.2 15.9999 19.2C15.1512 19.2 14.3373 18.8628 13.7372 18.2627C13.1371 17.6626 12.7999 16.8487 12.7999 16C12.7999 15.1513 13.1371 14.3374 13.7372 13.7372C14.3373 13.1371 15.1512 12.8 15.9999 12.8C16.8486 12.8 17.6625 13.1371 18.2627 13.7372C18.8628 14.3374 19.1999 15.1513 19.1999 16ZM25.5999 19.2C26.4486 19.2 27.2625 18.8628 27.8627 18.2627C28.4628 17.6626 28.7999 16.8487 28.7999 16C28.7999 15.1513 28.4628 14.3374 27.8627 13.7372C27.2625 13.1371 26.4486 12.8 25.5999 12.8C24.7512 12.8 23.9373 13.1371 23.3372 13.7372C22.7371 14.3374 22.3999 15.1513 22.3999 16C22.3999 16.8487 22.7371 17.6626 23.3372 18.2627C23.9373 18.8628 24.7512 19.2 25.5999 19.2Z" fill="#FBAE05"/>
</svg>
