<svg width="28" height="28" viewBox="0 0 28 28" fill="none" xmlns="http://www.w3.org/2000/svg">
<path d="M17.573 13.1215C17.573 15.0947 15.9734 16.6943 14.0001 16.6943C12.0269 16.6943 10.4272 15.0947 10.4272 13.1215C10.4272 11.1482 12.0269 9.54858 14.0001 9.54858C15.9734 9.54858 17.573 11.1482 17.573 13.1215Z" fill="#FBAE05"/>
<path d="M26.9878 1.01194C26.3348 0.359317 25.4668 0 24.544 0H3.45623C2.53338 0 1.66542 0.359317 1.01194 1.01237C0.359317 1.66563 0 2.53337 0 3.45623V6.971C0 7.89386 0.359317 8.7616 1.01237 9.41529C1.66563 10.0679 2.53338 10.427 3.45623 10.427H3.63141V4.39319C3.63141 3.94031 3.99863 3.57287 4.45172 3.57287H23.5487C24.0016 3.57287 24.369 3.94031 24.369 4.39319V10.427H24.544C25.4668 10.427 26.3346 10.0677 26.9883 9.41465C27.6409 8.7616 28.0002 7.89365 28.0002 6.971V3.45623C28.0002 2.53337 27.6409 1.66563 26.9878 1.01194Z" fill="#FBAE05"/>
<path d="M5.27185 25.4225C5.27185 26.1114 5.54016 26.7587 6.02659 27.2445C6.51322 27.7318 7.16051 28.0001 7.84945 28.0001H20.1508C20.8397 28.0001 21.487 27.7318 21.9728 27.2453C22.4599 26.7587 22.7282 26.1114 22.7282 25.4225V5.21338H5.27185V25.4225ZM14.0001 7.90783C16.8749 7.90783 19.2136 10.2466 19.2136 13.1213C19.2136 15.9961 16.8749 18.3348 14.0001 18.3348C11.1254 18.3348 8.78662 15.9961 8.78662 13.1213C8.78662 10.2466 11.1254 7.90783 14.0001 7.90783ZM9.60694 21.9663H18.3933C18.8464 21.9663 19.2136 22.3335 19.2136 22.7866C19.2136 23.2395 18.8464 23.6069 18.3933 23.6069H9.60694C9.15384 23.6069 8.78662 23.2395 8.78662 22.7866C8.78662 22.3335 9.15384 21.9663 9.60694 21.9663Z" fill="#FBAE05"/>
</svg>
