<svg width="32" height="32" viewBox="0 0 32 32" fill="none" xmlns="http://www.w3.org/2000/svg">
<path d="M6.66663 5.00004C6.66663 4.02758 7.05293 3.09495 7.74057 2.40732C8.4282 1.71968 9.36083 1.33337 10.3333 1.33337H21.3333C22.3058 1.33337 23.2384 1.71968 23.926 2.40732C24.6137 3.09495 25 4.02758 25 5.00004V27C25 27.9725 24.6137 28.9051 23.926 29.5927C23.2384 30.2804 22.3058 30.6667 21.3333 30.6667H10.3333C9.36083 30.6667 8.4282 30.2804 7.74057 29.5927C7.05293 28.9051 6.66663 27.9725 6.66663 27V5.00004ZM17.6666 25.1667C17.6666 24.6804 17.4735 24.2141 17.1297 23.8703C16.7858 23.5265 16.3195 23.3333 15.8333 23.3333C15.3471 23.3333 14.8807 23.5265 14.5369 23.8703C14.1931 24.2141 14 24.6804 14 25.1667C14 25.6529 14.1931 26.1192 14.5369 26.463C14.8807 26.8069 15.3471 27 15.8333 27C16.3195 27 16.7858 26.8069 17.1297 26.463C17.4735 26.1192 17.6666 25.6529 17.6666 25.1667Z" fill="#FBAE05"/>
</svg>
