<svg width="30" height="24" viewBox="0 0 30 24" fill="none" xmlns="http://www.w3.org/2000/svg">
<path d="M9.9036 0C10.4636 0 10.9183 0.445846 10.9183 0.99629C10.9183 1.54543 10.4649 1.99127 9.9036 1.99127L7.7316 1.99258C5.92893 1.99519 4.46227 3.43472 4.46227 5.20372V7.68268C4.46227 8.23181 4.00627 8.67897 3.44627 8.67897C2.88627 8.67897 2.4316 8.23181 2.4316 7.68268V5.20372C2.4316 2.33775 4.80893 0.0039224 7.73027 0.00130747L9.9036 0Z" fill="#FBAE05"/>
<path d="M19.4675 0.000392437H21.5915C24.5208 0.000392437 26.9021 2.33553 26.9021 5.20803V7.68307C26.9021 8.23221 26.4488 8.67936 25.8875 8.67936C25.3275 8.67936 24.8728 8.23221 24.8728 7.68307V5.20803C24.8728 3.4338 23.4008 1.99036 21.5915 1.99036H19.4675C18.9075 1.99036 18.4528 1.54582 18.4528 0.996683C18.4528 0.446239 18.9075 0.000392437 19.4675 0.000392437Z" fill="#FBAE05"/>
<path d="M18.35 4.99021H10.9847C9.29933 5.00721 7.94467 6.35782 7.95933 8.01177V9.67225C7.96333 9.86576 8.122 10.024 8.31933 10.0305H21.0127C21.2113 10.0253 21.37 9.86706 21.3767 9.67225V8.01177C21.378 7.2129 21.0633 6.44542 20.4953 5.87406C19.9313 5.30793 19.1567 4.99021 18.35 4.99021Z" fill="#FBAE05"/>
<path d="M1.016 12.055H28.3187C28.8787 12.055 29.3333 12.5008 29.3333 13.0513C29.3333 13.6004 28.8787 14.0449 28.3187 14.0449H26.9027V18.791C26.9027 21.6649 24.52 24 21.592 24H19.468C18.9067 24 18.452 23.5542 18.452 23.0037C18.452 22.4546 18.9067 22.0087 19.468 22.0087H21.592C23.4013 22.0087 24.8733 20.5666 24.8733 18.791V14.0449H21.376V15.3668C21.3893 17.0207 20.036 18.3727 18.3493 18.3883H10.984C9.29867 18.3727 7.94533 17.0207 7.95867 15.3668V14.0449H4.46133V18.7963C4.46133 20.5653 5.92933 22.0048 7.73333 22.0074L9.904 22.0087C10.464 22.0087 10.9187 22.4546 10.9187 23.0037C10.9173 23.5542 10.464 24 9.90267 24L7.73067 23.9987C4.80933 23.9961 2.43067 21.6622 2.43067 18.7963V14.0449H1.016C0.456 14.0449 0 13.6004 0 13.0513C0 12.5008 0.456 12.055 1.016 12.055Z" fill="#FBAE05"/>
</svg>
