<svg width="28" height="26" viewBox="0 0 28 26" fill="none" xmlns="http://www.w3.org/2000/svg">
<path d="M27.125 16.3334C26.642 16.3334 26.25 15.9414 26.25 15.4584C26.25 12.0809 23.5025 9.33337 20.125 9.33337H11.6667V13.125C11.6667 13.895 10.7403 14.2847 10.1873 13.7574L3.77067 7.63237C3.598 7.46787 3.5 7.2392 3.5 7.00003C3.5 6.76087 3.598 6.5322 3.77067 6.3677L10.1873 0.2427C10.7427 -0.286967 11.6667 0.107366 11.6667 0.875033V4.6667H18.9583C23.9435 4.6667 28 8.7232 28 13.7084V15.4584C28 15.9414 27.608 16.3334 27.125 16.3334Z" fill="#FBAE05"/>
<path d="M16.3333 24.7913V20.9997H9.04167C4.0565 20.9997 0 16.9432 0 11.958V10.208C0 9.72501 0.392 9.33301 0.875 9.33301C1.358 9.33301 1.75 9.72501 1.75 10.208C1.75 13.5855 4.4975 16.333 7.875 16.333H16.3333V12.5413C16.3333 11.7748 17.2562 11.377 17.8127 11.909L24.2293 18.034C24.402 18.1985 24.5 18.4272 24.5 18.6663C24.5 18.9055 24.402 19.1342 24.2293 19.2987L17.8127 25.4237C17.2562 25.9533 16.3333 25.559 16.3333 24.7913Z" fill="#FBAE05"/>
</svg>
