<svg width="28" height="28" viewBox="0 0 28 28" fill="none" xmlns="http://www.w3.org/2000/svg">
<path d="M26.3594 15.6406C25.805 15.6406 21.1907 15.6406 21.4375 15.6406C19.6279 15.6406 18.1562 17.1122 18.1562 18.9219C18.1562 20.7315 19.6278 22.2031 21.4375 22.2031C21.9919 22.2031 26.6062 22.2031 26.3594 22.2031C27.2638 22.2031 28 21.467 28 20.5625C28 20.3802 28 17.1037 28 17.2812C28 16.3768 27.2639 15.6406 26.3594 15.6406ZM21.4375 19.7422C20.9845 19.7422 20.6172 19.3749 20.6172 18.9219C20.6172 18.4689 20.9844 18.1016 21.4375 18.1016C21.8905 18.1016 22.2578 18.4687 22.2578 18.9219C22.2578 19.3749 21.8905 19.7422 21.4375 19.7422Z" fill="#FBAE05"/>
<path d="M12.3594 8.20312C14.6208 8.20312 16.4609 6.36311 16.4609 4.10156C16.4609 1.84018 14.6209 0 12.3594 0C10.098 0 8.25781 1.84002 8.25781 4.10156C8.25781 6.36295 10.0978 8.20312 12.3594 8.20312ZM12.3594 3.28125C12.8124 3.28125 13.1797 3.64842 13.1797 4.10156C13.1797 4.55454 12.8124 4.92188 12.3594 4.92188C11.9064 4.92188 11.5391 4.55459 11.5391 4.10156C11.5391 3.64859 11.9062 3.28125 12.3594 3.28125Z" fill="#FBAE05"/>
<path d="M23.8985 7.37948C23.8985 6.9283 23.5328 6.5625 23.0815 6.5625H17.5257C17.2383 7.16275 16.8549 7.72494 16.3654 8.20312H23.8985C23.8985 8.03791 23.8985 7.21427 23.8985 7.37948Z" fill="#FBAE05"/>
<path d="M16.5156 18.9222C16.5156 16.2082 18.7234 14.0003 21.4375 14.0003C21.6587 14.0003 25.7696 14.0003 25.5391 14.0003V10.6644C25.5391 10.205 25.1782 9.8441 24.7187 9.8441C24.4396 9.8441 1.21171 9.8441 0.820312 9.8441C0.539711 9.8441 0.267477 9.78837 0 9.69299V25.5394C0 26.901 1.09916 28.0003 2.46094 28.0003H24.7187C25.1781 28.0003 25.5391 27.6395 25.5391 27.18V23.8441C25.3179 23.8441 21.207 23.8441 21.4375 23.8441C18.7235 23.8441 16.5156 21.6364 16.5156 18.9222Z" fill="#FBAE05"/>
<path d="M0.820312 6.5625C0.360883 6.5625 0 6.92338 0 7.38281C0 7.84213 0.360883 8.20312 0.820312 8.20312H8.35346C7.86395 7.72494 7.48048 7.16275 7.19321 6.5625H0.820312Z" fill="#FBAE05"/>
</svg>
