<svg width="84" height="84" viewBox="0 0 84 84" fill="none" xmlns="http://www.w3.org/2000/svg">
<path d="M38.1794 2.67896C40.0517 -0.448328 44.4096 -0.448323 46.2818 2.67896L57.2763 21.0431C57.9322 22.1387 58.9687 22.9259 60.1682 23.2394L80.2741 28.4946C83.698 29.3895 85.0447 33.7218 82.7779 36.5495L69.4669 53.1544C68.6729 54.145 68.2769 55.4187 68.3623 56.708L69.794 78.3201C70.0378 82.0005 66.5123 84.678 63.239 83.2983L44.0179 75.1965C42.8713 74.7132 41.59 74.7132 40.4434 75.1965L21.2222 83.2983C17.949 84.678 14.4235 82.0005 14.6673 78.3201L16.0989 56.708C16.1843 55.4187 15.7884 54.145 14.9943 53.1544L1.68335 36.5495C-0.583415 33.7218 0.763234 29.3895 4.18713 28.4946L24.2931 23.2394C25.4925 22.9259 26.5291 22.1387 27.185 21.0431L38.1794 2.67896Z" fill="#FCC213"/>
</svg>
