<svg width="70" height="70" viewBox="0 0 70 70" fill="none" xmlns="http://www.w3.org/2000/svg">
<rect x="2.5" y="2.5" width="65" height="65" rx="32.5" fill="#265BAA" stroke="white" stroke-width="5"/>
<path d="M51.5375 26.0792L29.9958 47.6208C29.6042 48.0125 29.2125 48.2083 28.625 48.2083C28.0375 48.2083 27.6458 48.0125 27.2542 47.6208L17.4625 37.8292C16.6792 37.0458 16.6792 35.8708 17.4625 35.0875C18.2458 34.3042 19.4208 34.3042 20.2042 35.0875L28.625 43.5083L48.7958 23.3375C49.5792 22.5542 50.7542 22.5542 51.5375 23.3375C52.3208 24.1208 52.3208 25.2958 51.5375 26.0792Z" fill="black"/>
<mask id="mask0_1176_1082" style="mask-type:luminance" maskUnits="userSpaceOnUse" x="16" y="22" width="37" height="27">
<path d="M51.5375 26.0792L29.9958 47.6208C29.6042 48.0125 29.2125 48.2083 28.625 48.2083C28.0375 48.2083 27.6458 48.0125 27.2542 47.6208L17.4625 37.8292C16.6792 37.0458 16.6792 35.8708 17.4625 35.0875C18.2458 34.3042 19.4208 34.3042 20.2042 35.0875L28.625 43.5083L48.7958 23.3375C49.5792 22.5542 50.7542 22.5542 51.5375 23.3375C52.3208 24.1208 52.3208 25.2958 51.5375 26.0792Z" fill="white"/>
</mask>
<g mask="url(#mask0_1176_1082)">
<rect x="11" y="11" width="47" height="47" fill="white"/>
</g>
</svg>
