<svg width="70" height="70" viewBox="0 0 70 70" fill="none" xmlns="http://www.w3.org/2000/svg">
<rect x="2.5" y="2.5" width="65" height="65" rx="32.5" fill="#C1242D" stroke="white" stroke-width="5"/>
<path d="M47.6209 44.8791C48.4042 45.6625 48.4042 46.8375 47.6209 47.6208C47.2292 48.0125 46.8376 48.2083 46.2501 48.2083C45.6626 48.2083 45.2709 48.0125 44.8792 47.6208L34.5001 37.2416L24.1209 47.6208C23.7292 48.0125 23.3376 48.2083 22.7501 48.2083C22.1626 48.2083 21.7709 48.0125 21.3792 47.6208C20.5959 46.8375 20.5959 45.6625 21.3792 44.8791L31.7584 34.5L21.3792 24.1208C20.5959 23.3375 20.5959 22.1625 21.3792 21.3791C22.1626 20.5958 23.3376 20.5958 24.1209 21.3791L34.5001 31.7583L44.8792 21.3791C45.6626 20.5958 46.8376 20.5958 47.6209 21.3791C48.4042 22.1625 48.4042 23.3375 47.6209 24.1208L37.2417 34.5L47.6209 44.8791Z" fill="black"/>
<mask id="mask0_1176_1079" style="mask-type:luminance" maskUnits="userSpaceOnUse" x="20" y="20" width="29" height="29">
<path d="M47.6209 44.8791C48.4042 45.6625 48.4042 46.8375 47.6209 47.6208C47.2292 48.0125 46.8376 48.2083 46.2501 48.2083C45.6626 48.2083 45.2709 48.0125 44.8792 47.6208L34.5001 37.2416L24.1209 47.6208C23.7292 48.0125 23.3376 48.2083 22.7501 48.2083C22.1626 48.2083 21.7709 48.0125 21.3792 47.6208C20.5959 46.8375 20.5959 45.6625 21.3792 44.8791L31.7584 34.5L21.3792 24.1208C20.5959 23.3375 20.5959 22.1625 21.3792 21.3791C22.1626 20.5958 23.3376 20.5958 24.1209 21.3791L34.5001 31.7583L44.8792 21.3791C45.6626 20.5958 46.8376 20.5958 47.6209 21.3791C48.4042 22.1625 48.4042 23.3375 47.6209 24.1208L37.2417 34.5L47.6209 44.8791Z" fill="white"/>
</mask>
<g mask="url(#mask0_1176_1079)">
<rect x="11" y="11" width="47" height="47" fill="white"/>
</g>
</svg>
