<svg width="52" height="52" viewBox="0 0 52 52" fill="none" xmlns="http://www.w3.org/2000/svg">
<path d="M23.2762 1.80274C24.4283 -0.121748 27.1101 -0.121744 28.2622 1.80274L35.0281 13.1038C35.4317 13.7779 36.0696 14.2624 36.8077 14.4553L49.1806 17.6893C51.2876 18.24 52.1163 20.906 50.7214 22.6461L42.53 32.8645C42.0413 33.4741 41.7977 34.258 41.8502 35.0514L42.7313 48.3511C42.8813 50.616 40.7117 52.2637 38.6974 51.4146L26.8691 46.4289C26.1634 46.1315 25.375 46.1315 24.6693 46.4289L12.841 51.4146C10.8267 52.2637 8.65709 50.616 8.80712 48.3511L9.68816 35.0514C9.74071 34.258 9.49707 33.4741 9.0084 32.8645L0.817026 22.6461C-0.577906 20.906 0.250801 18.24 2.35782 17.6893L14.7307 14.4553C15.4688 14.2624 16.1067 13.7779 16.5103 13.1038L23.2762 1.80274Z" fill="#FCC213"/>
</svg>