<svg width="33" height="42" viewBox="0 0 33 42" fill="none" xmlns="http://www.w3.org/2000/svg">
<path d="M9.41432 18.4285V18.4135C9.41575 18.4102 9.41432 18.4087 9.41432 18.4046V18.4285ZM27.3095 17.6387C26.9288 17.3566 26.4642 17.0136 26.3018 16.8271C26.3906 16.6597 26.5979 16.3475 26.7782 16.09C27.6849 14.764 29.3769 12.295 29.3769 8.75748C29.3767 4.71792 26.4261 0 18.1136 0C14.1776 0 9.72194 1.30068 5.88438 3.57156C2.43965 5.61084 0.212831 7.98696 0.212831 9.62376C0.212831 10.0139 0.363587 10.3718 0.649519 10.6574C1.72674 11.7326 4.73071 11.7074 8.20815 11.7074C13.3776 11.7074 15.5082 11.9909 15.5082 12.8142C15.5082 13.8116 9.41432 16.2696 9.41432 18.4135C9.41432 20.8948 14.5298 21.3565 16.8453 21.7708C19.0278 22.1629 19.2508 23.3453 19.2508 24.1571C19.2508 25.6745 18.6929 27.0222 17.6783 27.9493C16.719 28.8272 15.5313 29.3848 13.7902 29.3041C14.3429 25.3158 11.5203 22.6255 7.41459 22.6255C2.77532 22.6255 0 26.4738 0 30.1922C0 36.0581 5.41018 42.0002 15.7524 42.0002C19.8444 42.0002 23.9816 40.6488 27.1001 38.2927C29.6823 36.343 32.762 32.7959 32.762 26.9719C32.762 21.664 29.2145 19.046 27.3095 17.6387Z" fill="white"/>
<path d="M9.41432 18.4285V18.4135C9.41575 18.4102 9.41432 18.4087 9.41432 18.4046V18.4285ZM27.3095 17.6387C26.9288 17.3566 26.4642 17.0136 26.3018 16.8271C26.3906 16.6597 26.5979 16.3475 26.7782 16.09C27.6849 14.764 29.3769 12.295 29.3769 8.75748C29.3767 4.71792 26.4261 0 18.1136 0C14.1776 0 9.72194 1.30068 5.88438 3.57156C2.43965 5.61084 0.212831 7.98696 0.212831 9.62376C0.212831 10.0139 0.363587 10.3718 0.649519 10.6574C1.72674 11.7326 4.73071 11.7074 8.20815 11.7074C13.3776 11.7074 15.5082 11.9909 15.5082 12.8142C15.5082 13.8116 9.41432 16.2696 9.41432 18.4135C9.41432 20.8948 14.5298 21.3565 16.8453 21.7708C19.0278 22.1629 19.2508 23.3453 19.2508 24.1571C19.2508 25.6745 18.6929 27.0222 17.6783 27.9493C16.719 28.8272 15.5313 29.3848 13.7902 29.3041C14.3429 25.3158 11.5203 22.6255 7.41459 22.6255C2.77532 22.6255 0 26.4738 0 30.1922C0 36.0581 5.41018 42.0002 15.7524 42.0002C19.8444 42.0002 23.9816 40.6488 27.1001 38.2927C29.6823 36.343 32.762 32.7959 32.762 26.9719C32.762 21.664 29.2145 19.046 27.3095 17.6387ZM10.6054 18.4162H10.5958C10.6183 17.763 12.399 16.6228 13.5806 15.8687C15.3182 14.7571 16.6895 13.8799 16.6895 12.8142C16.6895 12.3839 16.5244 11.989 16.2099 11.6754C15.0303 10.4983 11.7146 10.51 8.20444 10.5257C6.92661 10.529 5.57029 10.5694 4.2788 10.4587C5.59485 10.0214 7.19337 9.16404 8.96049 8.22C11.5462 6.8352 14.4328 5.28996 17.1398 4.6716C16.4215 5.39028 15.95 6.2586 15.95 6.96504C15.95 7.2534 16.1267 7.56144 16.6192 7.56144C17.0546 7.56144 17.5683 7.39272 18.1626 7.19652C19.7329 6.68352 21.8276 5.99964 24.1839 7.73208C23.3775 7.72872 22.7145 7.95144 22.3387 8.2446C21.9769 8.52612 21.8998 8.82936 21.8998 9.03156C21.8998 9.35808 22.1455 9.63408 22.4838 10.0174C23.014 10.6158 23.7392 11.4349 23.7392 12.7398C23.7392 13.8212 23.2842 14.945 22.6299 15.7444C22.7281 15.0408 22.6067 14.0003 22.1878 13.5228C21.9914 13.2994 21.7328 13.1812 21.4401 13.1812C20.9626 13.1812 20.4993 13.5685 19.7939 14.154C19.2979 14.5645 18.6825 15.0756 17.902 15.5812C15.5852 17.0738 12.9537 18.5994 11.023 18.5994C10.9083 18.5993 10.6054 18.5678 10.6054 18.4162ZM13.4852 30.4249C15.5312 30.5356 17.2034 29.9843 18.4752 28.8209C19.7189 27.684 20.4305 25.9836 20.4305 24.1568C20.4305 23.1218 20.0654 22.3807 19.2591 21.7364C22.2847 22.3588 25.5309 23.9089 27.2018 26.3348C26.3332 26.0322 25.793 25.951 25.2253 25.951C24.7915 25.951 24.404 26.429 24.404 27.0035C24.404 27.2966 24.52 27.6553 24.6687 28.1096C25.1237 29.5135 25.8571 31.7728 23.9571 34.6217C23.9946 33.4453 23.6937 32.5012 23.3185 32.0339C23.0571 31.7094 22.7917 31.6405 22.615 31.6405C22.0277 31.6405 21.722 32.1972 21.2963 32.9678C20.5286 34.3596 19.2755 36.6229 15.3266 37.7304C15.8894 36.8669 16.0826 35.9405 15.8779 35.4396C15.7762 35.1917 15.5722 35.042 15.33 35.042H15.315C14.9356 35.0584 14.4641 35.193 13.9157 35.346C12.1357 35.8454 9.51043 36.579 6.79778 34.3943C7.34916 34.3499 7.82527 34.1818 8.14727 33.9031C8.37988 33.7036 8.50751 33.4556 8.50751 33.2082C8.50751 32.8358 8.19976 32.5483 7.80885 32.1848C7.03446 31.4669 6.01381 30.5153 6.83182 28.5374C6.93955 28.9692 7.13824 29.3564 7.41794 29.6653C7.74678 30.0307 8.14248 30.2398 8.50607 30.2398C9.30778 30.2398 9.30778 29.5572 9.30778 29.1066C9.30778 28.5128 9.84801 27.9929 10.4628 27.9929C12.2074 27.9929 12.8649 30.5726 12.2857 31.9724C12.8649 31.5227 13.3139 30.8609 13.4852 30.4249ZM26.3905 37.3481C23.4705 39.5521 19.5939 40.8166 15.7523 40.8166C6.18853 40.8166 1.1816 35.4701 1.1816 30.1919C1.1816 27.0534 3.51963 23.7845 7.4207 23.7845C9.72529 23.7845 13.3139 24.9185 12.8649 29.4096C12.7982 28.9546 12.2074 27.3562 10.4628 27.3562C9.49125 27.3562 8.66989 28.1568 8.66989 29.1065C8.66989 29.493 8.57989 29.601 8.50607 29.601C7.86134 29.601 7.05639 28.6506 7.22141 27.0595C4.71417 29.8591 6.50095 31.843 7.37492 32.6526C7.57002 32.8357 7.86757 33.1097 7.87093 33.2081C7.87093 33.4834 7.1525 33.9343 5.34931 33.769C8.49097 37.5155 12.1498 36.5042 14.0875 35.9579C14.5719 35.8232 15.1497 35.5739 15.3005 35.8006C15.5556 36.147 14.8714 37.7572 13.9469 38.5996C19.2392 37.9074 20.9754 34.8647 21.8521 33.2764C22.1484 32.7421 22.4021 32.2775 22.6148 32.2775C23.1662 32.2775 23.6572 34.5348 23.2856 36.2665C26.7944 32.9948 25.7847 29.4827 25.2723 27.912C25.148 27.5288 25.0417 27.1967 25.0417 27.0035C25.0417 26.7131 25.133 26.6326 25.3343 26.5812C26.2116 26.5812 27.2363 26.8955 28.4555 27.4782C25.2101 19.8704 13.9858 20.9143 11.2596 19.231C13.322 19.1203 15.9397 17.6036 18.2457 16.1177C19.0603 15.5903 19.6921 15.0662 20.201 14.6434C20.7331 14.2014 21.1929 13.8182 21.4399 13.8182C22.1221 13.8182 22.2169 15.8248 21.8657 17.0544C23.5719 15.9523 24.3757 14.295 24.3757 12.7394C24.3757 11.1935 23.5228 10.2294 22.9619 9.59268C22.7866 9.39384 22.5458 9.1254 22.5376 9.03108C22.5376 8.9436 22.6032 8.84052 22.7293 8.74692C23.3182 8.31516 24.4657 8.1546 25.6616 8.4258C23.0303 5.04 19.7596 6.00324 17.964 6.59076C17.4209 6.76908 16.6173 7.02108 16.6173 6.79704C16.6173 6.15684 17.4619 4.848 18.9627 3.93792C15.8988 3.7296 11.69 6.03312 8.66162 7.65708C6.18386 8.98356 3.85194 10.229 2.50988 10.229C1.68228 10.229 1.39227 9.92772 1.39227 9.62376C1.39227 7.3242 9.52397 1.18176 18.1134 1.18176C21.3677 1.18176 24.0272 1.98588 25.8045 3.50736C27.3456 4.82856 28.1972 6.69228 28.1972 8.75748C28.1972 11.928 26.6982 14.115 25.8025 15.4204C25.3426 16.0926 25.0909 16.4622 25.0909 16.8551C25.0909 17.4685 25.6619 17.8907 26.6081 18.5896C28.4686 19.9648 31.581 22.2608 31.581 26.9714C31.5811 32.3084 28.758 35.5583 26.3905 37.3481Z" fill="#111827"/>
</svg>
