<svg width="24" height="17" viewBox="0 0 24 17" fill="none" xmlns="http://www.w3.org/2000/svg">
<path d="M21.5 11H12.5C12.224 11 12 10.776 12 10.5C12 10.224 12.224 9.99996 12.5 9.99996H21.5C22.327 9.99996 23 9.32696 23 8.49996V2.5C23 1.673 22.327 1 21.5 1H9.5C8.673 1 8 1.673 8 2.5V5.5C8 5.776 7.776 6 7.5 6C7.224 6 7 5.776 7 5.5V2.5C7 1.122 8.121 0 9.5 0H21.5C22.879 0 24 1.122 24 2.5V8.49996C24 9.87796 22.879 11 21.5 11Z" fill="white"/>
<path d="M10.824 16.0779C10.413 16.0779 10.09 16.0449 9.862 15.9799L3.42401 14.9929C3.28401 14.9719 3.15901 14.8909 3.08201 14.7729C3.00401 14.6549 2.98001 14.5089 3.01701 14.3719L4.12201 10.1779C4.13101 10.1449 4.14301 10.1129 4.15801 10.0819C4.76201 8.87186 5.94801 8.09686 7.28701 8.02186L9.822 5.48688C10.451 4.85788 11.549 4.85788 12.177 5.48688C12.737 6.04686 12.823 6.93086 12.385 7.58886L10.812 9.74986C10.608 10.0299 10.499 10.3619 10.499 10.7089C10.499 11.6079 11.291 12.3299 12.212 12.1939L14.46 12.0169L17.499 12.0159C17.723 12.0159 17.919 12.1639 17.979 12.3789C18.041 12.5939 17.952 12.8229 17.762 12.9409L13.802 15.3989C13.189 15.9349 11.6 16.0779 10.824 16.0779ZM4.12501 14.0899L10.076 15.0059C10.186 15.0329 10.38 15.0789 10.824 15.0789C11.871 15.0789 12.951 14.8429 13.146 14.6469C13.173 14.6199 13.204 14.5959 13.236 14.5759L15.746 13.0179H14.5L12.322 13.1899C12.233 13.2039 12.114 13.2119 11.996 13.2119C10.62 13.2119 9.5 12.0899 9.5 10.7119C9.5 10.1509 9.675 9.61486 10.004 9.16286L11.566 7.01886C11.73 6.77286 11.695 6.41886 11.471 6.19586C11.219 5.94488 10.782 5.94488 10.53 6.19586L7.85401 8.87186C7.76001 8.96386 7.63301 9.01686 7.50001 9.01686C6.47301 9.01686 5.54901 9.57886 5.07501 10.4849L4.12501 14.0899Z" fill="white"/>
<path d="M0.499996 16.0169C0.223996 16.0169 0 15.7929 0 15.5169V8.51686C0 8.37786 0.059 8.24486 0.16 8.14986C0.262996 8.05586 0.393996 8.00786 0.538996 8.01886C1.104 8.06286 3.968 8.32486 4.844 9.15386C4.954 9.25886 5.012 9.40886 4.998 9.56086C4.771 12.1589 4.009 14.5679 3.977 14.6699C3.939 14.7889 3.857 14.8899 3.748 14.9519C3.672 14.9939 1.867 16.0169 0.499996 16.0169ZM0.999996 9.06686V14.9639C1.751 14.8199 2.621 14.4189 3.081 14.1759C3.254 13.5919 3.77 11.7309 3.976 9.75186C3.408 9.43686 2.081 9.18886 0.999996 9.06686Z" fill="white"/>
<path d="M23.5 4H7.5C7.224 4 7 3.776 7 3.5C7 3.224 7.224 3 7.5 3H23.5C23.776 3 24 3.224 24 3.5C24 3.776 23.776 4 23.5 4Z" fill="white"/>
<path d="M18.5 8.99996C18.372 8.99996 18.244 8.95096 18.146 8.85396C17.951 8.65896 17.951 8.34196 18.146 8.14696L21.146 5.14698C21.341 4.95198 21.658 4.95198 21.853 5.14698C22.048 5.34198 22.048 5.65898 21.853 5.85398L18.853 8.85396C18.756 8.95096 18.628 8.99996 18.5 8.99996Z" fill="white"/>
<path d="M18.53 6C18.254 6 18.025 5.776 18.025 5.5C18.025 5.224 18.244 5 18.519 5H18.53C18.805 5 19.03 5.224 19.03 5.5C19.03 5.776 18.806 6 18.53 6Z" fill="white"/>
<path d="M21.53 8.99996C21.254 8.99996 21.025 8.77596 21.025 8.49996C21.025 8.22396 21.244 7.99996 21.519 7.99996H21.53C21.805 7.99996 22.03 8.22396 22.03 8.49996C22.03 8.77596 21.806 8.99996 21.53 8.99996Z" fill="white"/>
<path d="M16.5 6.99996H14C13.724 6.99996 13.5 6.77596 13.5 6.49996C13.5 6.22396 13.724 6 14 6H16.5C16.776 6 17 6.22396 17 6.49996C17 6.77596 16.776 6.99996 16.5 6.99996Z" fill="white"/>
<path d="M16.5 8.99996H13.5C13.224 8.99996 13 8.77596 13 8.49996C13 8.22396 13.224 7.99996 13.5 7.99996H16.5C16.776 7.99996 17 8.22396 17 8.49996C17 8.77596 16.776 8.99996 16.5 8.99996Z" fill="white"/>
</svg>
