<svg width="20" height="14" viewBox="0 0 20 20" fill="none" xmlns="http://www.w3.org/2000/svg">
<path d="M17.9167 9.57835H10.4167C10.1867 9.57835 10 9.3833 10 9.14297C10 8.90264 10.1867 8.70759 10.4167 8.70759H17.9167C18.6058 8.70759 19.1667 8.12157 19.1667 7.40145V2.17691C19.1667 1.45679 18.6058 0.870763 17.9167 0.870763H7.91667C7.2275 0.870763 6.66666 1.45679 6.66666 2.17691V4.7892C6.66666 5.02953 6.48 5.22458 6.25 5.22458C6.02 5.22458 5.83333 5.02953 5.83333 4.7892V2.17691C5.83333 0.976996 6.7675 0 7.91667 0H17.9167C19.0658 0 20 0.976996 20 2.17691V7.40145C20 8.60136 19.0658 9.57835 17.9167 9.57835Z" fill="white"/>
<path d="M9.02 14C8.6775 14 8.40833 13.9713 8.21833 13.9147L2.85334 13.0552C2.73667 13.0369 2.63251 12.9664 2.56834 12.8637C2.50334 12.7609 2.48334 12.6338 2.51417 12.5145L3.43501 8.8625C3.44251 8.83376 3.45251 8.8059 3.46501 8.77891C3.96834 7.72528 4.95667 7.05044 6.07251 6.98514L8.185 4.77777C8.70917 4.23006 9.62416 4.23006 10.1475 4.77777C10.6142 5.26538 10.6858 6.03513 10.3208 6.6081L9.01 8.48981C8.84 8.73363 8.74917 9.02272 8.74917 9.32487C8.74917 10.1077 9.40916 10.7364 10.1767 10.618L12.05 10.4638L14.5825 10.463C14.7692 10.463 14.9325 10.5918 14.9825 10.779C15.0342 10.9663 14.96 11.1657 14.8017 11.2684L11.5017 13.4088C10.9908 13.8755 9.66667 14 9.02 14ZM3.43751 12.2689L8.39667 13.0665C8.48833 13.0901 8.65 13.1301 9.02 13.1301C9.8925 13.1301 10.7925 12.9246 10.955 12.7539C10.9775 12.7304 11.0033 12.7095 11.03 12.6921L13.1217 11.3355H12.0833L10.2683 11.4852C10.1942 11.4974 10.095 11.5044 9.99667 11.5044C8.85 11.5044 7.91667 10.5274 7.91667 9.32749C7.91667 8.83899 8.0625 8.37226 8.33667 7.97868L9.63833 6.11176C9.775 5.89755 9.74583 5.5893 9.55917 5.39512C9.34916 5.17658 8.985 5.17658 8.775 5.39512L6.54501 7.72528C6.46667 7.80539 6.36084 7.85154 6.25001 7.85154C5.39417 7.85154 4.62417 8.34091 4.22917 9.12982L3.43751 12.2689Z" fill="white"/>
<path d="M0.416663 13.9469C0.186663 13.9469 0 13.7518 0 13.5115V7.41616C0 7.29513 0.0491667 7.17932 0.133333 7.09659C0.219163 7.01474 0.32833 6.97295 0.449163 6.98252C0.919997 7.02084 3.30666 7.24898 4.03666 7.97084C4.12833 8.06227 4.17666 8.19288 4.165 8.32524C3.97583 10.5875 3.34083 12.6851 3.31416 12.774C3.2825 12.8776 3.21416 12.9655 3.12333 13.0195C3.06 13.0561 1.55583 13.9469 0.416663 13.9469ZM0.83333 7.89508V13.03C1.45916 12.9046 2.18416 12.5554 2.5675 12.3438C2.71166 11.8353 3.14166 10.2148 3.31333 8.49156C2.84 8.21726 1.73416 8.00132 0.83333 7.89508Z" fill="white"/>
<path d="M19.5833 3.48305H6.25C6.02 3.48305 5.83333 3.288 5.83333 3.04767C5.83333 2.80734 6.02 2.61229 6.25 2.61229H19.5833C19.8133 2.61229 20 2.80734 20 3.04767C20 3.288 19.8133 3.48305 19.5833 3.48305Z" fill="white"/>
<path d="M15.4167 7.83683C15.31 7.83683 15.2033 7.79416 15.1217 7.7097C14.9592 7.5399 14.9592 7.26387 15.1217 7.09407L17.6217 4.4818C17.7842 4.312 18.0483 4.312 18.2108 4.4818C18.3733 4.6516 18.3733 4.92763 18.2108 5.09743L15.7108 7.7097C15.63 7.79416 15.5233 7.83683 15.4167 7.83683Z" fill="white"/>
<path d="M15.4417 5.22458C15.2117 5.22458 15.0208 5.02953 15.0208 4.7892C15.0208 4.54886 15.2033 4.35381 15.4325 4.35381H15.4417C15.6708 4.35381 15.8583 4.54886 15.8583 4.7892C15.8583 5.02953 15.6717 5.22458 15.4417 5.22458Z" fill="white"/>
<path d="M17.9417 7.83683C17.7117 7.83683 17.5208 7.64178 17.5208 7.40145C17.5208 7.16112 17.7033 6.96607 17.9325 6.96607H17.9417C18.1708 6.96607 18.3583 7.16112 18.3583 7.40145C18.3583 7.64178 18.1717 7.83683 17.9417 7.83683Z" fill="white"/>
<path d="M13.75 6.0953H11.6667C11.4367 6.0953 11.25 5.90025 11.25 5.65992C11.25 5.41959 11.4367 5.22458 11.6667 5.22458H13.75C13.98 5.22458 14.1667 5.41959 14.1667 5.65992C14.1667 5.90025 13.98 6.0953 13.75 6.0953Z" fill="white"/>
<path d="M13.75 7.83683H11.25C11.02 7.83683 10.8333 7.64178 10.8333 7.40145C10.8333 7.16112 11.02 6.96607 11.25 6.96607H13.75C13.98 6.96607 14.1667 7.16112 14.1667 7.40145C14.1667 7.64178 13.98 7.83683 13.75 7.83683Z" fill="white"/>
</svg>
