<svg width="25" height="24" viewBox="0 0 25 24" fill="none" xmlns="http://www.w3.org/2000/svg">
<g clip-path="url(#clip0_160_14097)">
<path d="M22.3186 14.9609H13.3186C13.0426 14.9609 12.8186 14.7369 12.8186 14.4609C12.8186 14.1849 13.0426 13.9609 13.3186 13.9609H22.3186C23.1456 13.9609 23.8186 13.2879 23.8186 12.4609V6.46094C23.8186 5.63394 23.1456 4.96094 22.3186 4.96094H10.3186C9.4916 4.96094 8.8186 5.63394 8.8186 6.46094V9.46094C8.8186 9.73694 8.5946 9.96094 8.3186 9.96094C8.0426 9.96094 7.8186 9.73694 7.8186 9.46094V6.46094C7.8186 5.08294 8.9396 3.96094 10.3186 3.96094H22.3186C23.6976 3.96094 24.8186 5.08294 24.8186 6.46094V12.4609C24.8186 13.8389 23.6976 14.9609 22.3186 14.9609Z" fill="white"/>
<path d="M11.6426 20.0388C11.2316 20.0388 10.9086 20.0058 10.6806 19.9408L4.24261 18.9538C4.10261 18.9328 3.97761 18.8518 3.90061 18.7338C3.82261 18.6158 3.79861 18.4698 3.83561 18.3328L4.94061 14.1388C4.94961 14.1058 4.96161 14.0738 4.97661 14.0428C5.58061 12.8328 6.76661 12.0578 8.10561 11.9828L10.6406 9.44782C11.2696 8.81882 12.3676 8.81882 12.9956 9.44782C13.5556 10.0078 13.6416 10.8918 13.2036 11.5498L11.6306 13.7108C11.4266 13.9908 11.3176 14.3228 11.3176 14.6698C11.3176 15.5688 12.1096 16.2908 13.0306 16.1548L15.2786 15.9778L18.3176 15.9768C18.5416 15.9768 18.7376 16.1248 18.7976 16.3398C18.8596 16.5548 18.7706 16.7838 18.5806 16.9018L14.6206 19.3598C14.0076 19.8958 12.4186 20.0388 11.6426 20.0388ZM4.94361 18.0508L10.8946 18.9668C11.0046 18.9938 11.1986 19.0398 11.6426 19.0398C12.6896 19.0398 13.7696 18.8038 13.9646 18.6078C13.9916 18.5808 14.0226 18.5568 14.0546 18.5368L16.5646 16.9788H15.3186L13.1406 17.1508C13.0516 17.1648 12.9326 17.1728 12.8146 17.1728C11.4386 17.1728 10.3186 16.0508 10.3186 14.6728C10.3186 14.1118 10.4936 13.5758 10.8226 13.1238L12.3846 10.9798C12.5486 10.7338 12.5136 10.3798 12.2896 10.1568C12.0376 9.90582 11.6006 9.90582 11.3486 10.1568L8.67261 12.8328C8.57861 12.9248 8.45161 12.9778 8.31861 12.9778C7.29161 12.9778 6.36761 13.5398 5.89361 14.4458L4.94361 18.0508Z" fill="white"/>
<path d="M1.3186 19.9778C1.0426 19.9778 0.818604 19.7538 0.818604 19.4778V12.4778C0.818604 12.3388 0.877604 12.2058 0.978604 12.1108C1.0816 12.0168 1.2126 11.9688 1.3576 11.9798C1.9226 12.0238 4.7866 12.2858 5.6626 13.1148C5.7726 13.2198 5.8306 13.3698 5.8166 13.5218C5.5896 16.1198 4.8276 18.5288 4.7956 18.6308C4.7576 18.7498 4.6756 18.8508 4.5666 18.9128C4.4906 18.9548 2.6856 19.9778 1.3186 19.9778ZM1.8186 13.0278V18.9248C2.5696 18.7808 3.4396 18.3798 3.8996 18.1368C4.0726 17.5528 4.5886 15.6918 4.7946 13.7128C4.2266 13.3978 2.8996 13.1498 1.8186 13.0278Z" fill="white"/>
<path d="M24.3186 7.96094H8.3186C8.0426 7.96094 7.8186 7.73694 7.8186 7.46094C7.8186 7.18494 8.0426 6.96094 8.3186 6.96094H24.3186C24.5946 6.96094 24.8186 7.18494 24.8186 7.46094C24.8186 7.73694 24.5946 7.96094 24.3186 7.96094Z" fill="white"/>
<path d="M19.3186 12.9609C19.1906 12.9609 19.0626 12.9119 18.9646 12.8149C18.7696 12.6199 18.7696 12.3029 18.9646 12.1079L21.9646 9.10792C22.1596 8.91292 22.4766 8.91292 22.6716 9.10792C22.8666 9.30292 22.8666 9.61992 22.6716 9.81492L19.6716 12.8149C19.5746 12.9119 19.4466 12.9609 19.3186 12.9609Z" fill="white"/>
<path d="M19.3486 9.96094C19.0726 9.96094 18.8436 9.73694 18.8436 9.46094C18.8436 9.18494 19.0626 8.96094 19.3376 8.96094H19.3486C19.6236 8.96094 19.8486 9.18494 19.8486 9.46094C19.8486 9.73694 19.6246 9.96094 19.3486 9.96094Z" fill="white"/>
<path d="M22.3486 12.9609C22.0726 12.9609 21.8436 12.7369 21.8436 12.4609C21.8436 12.1849 22.0626 11.9609 22.3376 11.9609H22.3486C22.6236 11.9609 22.8486 12.1849 22.8486 12.4609C22.8486 12.7369 22.6246 12.9609 22.3486 12.9609Z" fill="white"/>
<path d="M17.3186 10.9609H14.8186C14.5426 10.9609 14.3186 10.7369 14.3186 10.4609C14.3186 10.1849 14.5426 9.96094 14.8186 9.96094H17.3186C17.5946 9.96094 17.8186 10.1849 17.8186 10.4609C17.8186 10.7369 17.5946 10.9609 17.3186 10.9609Z" fill="white"/>
<path d="M17.3186 12.9609H14.3186C14.0426 12.9609 13.8186 12.7369 13.8186 12.4609C13.8186 12.1849 14.0426 11.9609 14.3186 11.9609H17.3186C17.5946 11.9609 17.8186 12.1849 17.8186 12.4609C17.8186 12.7369 17.5946 12.9609 17.3186 12.9609Z" fill="white"/>
</g>
<defs>
<clipPath id="clip0_160_14097">
<rect width="24" height="24" fill="white" transform="translate(0.818604)"/>
</clipPath>
</defs>
</svg>
