<svg width="22" height="19" viewBox="0 0 22 19" fill="none" xmlns="http://www.w3.org/2000/svg">
<path d="M15.8776 12.521C16.3454 12.2015 16.8941 12.0211 17.4601 12.0004C18.0262 11.9798 18.5866 12.1199 19.0764 12.4044C19.5662 12.689 19.9654 13.1064 20.2279 13.6084C20.4904 14.1104 20.6054 14.6764 20.5596 15.241C19.3598 15.6603 18.0854 15.8235 16.8186 15.72C16.8147 14.5866 16.4883 13.4768 15.8776 12.522C15.3355 11.6718 14.5877 10.972 13.7034 10.4875C12.8191 10.003 11.8269 9.7493 10.8186 9.75C9.8104 9.7495 8.8184 10.0032 7.93432 10.4877C7.05022 10.9723 6.30259 11.6719 5.76059 12.522M5.76059 12.522C5.2928 12.2028 4.74423 12.0226 4.17831 12.0021C3.61238 11.9817 3.05222 12.1218 2.56259 12.4063C2.07296 12.6908 1.67385 13.1081 1.41142 13.6099C1.14898 14.1117 1.03394 14.6776 1.07959 15.242C2.2785 15.6637 3.55222 15.8263 4.81859 15.719M5.76059 12.522C5.15021 13.4769 4.82218 14.5857 4.81859 15.719M16.8176 15.719L16.8186 15.75C16.8186 15.975 16.8066 16.197 16.7816 16.416C14.9669 17.4571 12.9107 18.0033 10.8186 18C8.6486 18 6.61159 17.424 4.85559 16.416C4.82988 16.1846 4.81753 15.9519 4.81859 15.719M13.8186 3.75C13.8186 4.54565 13.5025 5.30871 12.9399 5.87132C12.3773 6.43393 11.6142 6.75 10.8186 6.75C10.0229 6.75 9.2599 6.43393 8.6973 5.87132C8.1347 5.30871 7.81859 4.54565 7.81859 3.75C7.81859 2.95435 8.1347 2.19129 8.6973 1.62868C9.2599 1.06607 10.0229 0.75 10.8186 0.75C11.6142 0.75 12.3773 1.06607 12.9399 1.62868C13.5025 2.19129 13.8186 2.95435 13.8186 3.75ZM19.8186 6.75C19.8186 7.0455 19.7604 7.3381 19.6473 7.611C19.5342 7.884 19.3685 8.1321 19.1596 8.341C18.9506 8.5499 18.7026 8.7157 18.4296 8.8287C18.1566 8.9418 17.8641 9 17.5686 9C17.2731 9 16.9805 8.9418 16.7076 8.8287C16.4346 8.7157 16.1865 8.5499 15.9776 8.341C15.7687 8.1321 15.6029 7.884 15.4899 7.611C15.3768 7.3381 15.3186 7.0455 15.3186 6.75C15.3186 6.15326 15.5556 5.58097 15.9776 5.15901C16.3996 4.73705 16.9719 4.5 17.5686 4.5C18.1653 4.5 18.7376 4.73705 19.1596 5.15901C19.5815 5.58097 19.8186 6.15326 19.8186 6.75ZM6.31859 6.75C6.31859 7.0455 6.26039 7.3381 6.14732 7.611C6.03424 7.884 5.86851 8.1321 5.65958 8.341C5.45065 8.5499 5.20261 8.7157 4.92963 8.8287C4.65664 8.9418 4.36406 9 4.06859 9C3.77311 9 3.48053 8.9418 3.20755 8.8287C2.93457 8.7157 2.68653 8.5499 2.4776 8.341C2.26867 8.1321 2.10293 7.884 1.98986 7.611C1.87679 7.3381 1.81859 7.0455 1.81859 6.75C1.81859 6.15326 2.05564 5.58097 2.4776 5.15901C2.89956 4.73705 3.47185 4.5 4.06859 4.5C4.66533 4.5 5.23762 4.73705 5.65958 5.15901C6.08154 5.58097 6.31859 6.15326 6.31859 6.75Z" stroke="white" stroke-linecap="round" stroke-linejoin="round"/>
</svg>
