<svg width="20" height="19" viewBox="0 0 20 20" fill="none" xmlns="http://www.w3.org/2000/svg">
<path d="M14.669 12.6004C15.1008 12.2855 15.6073 12.1077 16.1298 12.0873C16.6524 12.067 17.1697 12.2051 17.6218 12.4855C18.0739 12.766 18.4424 13.1773 18.6847 13.672C18.9271 14.1668 19.0332 14.7246 18.9909 15.281C17.8834 15.6942 16.707 15.855 15.5376 15.753C15.534 14.6361 15.2327 13.5414 14.669 12.6004ZM14.669 12.6004C14.1686 11.7625 13.4783 11.0738 12.662 10.5964C11.8457 10.1189 10.9298 9.86887 9.99905 9.86956C9.06839 9.86906 8.15268 10.1191 7.33659 10.5966C6.52048 11.0741 5.83034 11.7636 5.33003 12.6014M5.33003 12.6014C4.89821 12.2868 4.39183 12.1092 3.86943 12.089C3.34702 12.0689 2.82994 12.207 2.37797 12.4874C1.92599 12.7677 1.55757 13.179 1.31532 13.6735C1.07307 14.168 0.966875 14.7257 1.00901 15.282C2.11572 15.6975 3.29149 15.8578 4.46047 15.752M5.33003 12.6014C4.76659 13.5424 4.46378 14.6352 4.46047 15.752M15.5367 15.752L15.5376 15.7826C15.5376 16.0043 15.5266 16.2231 15.5035 16.4389C13.8283 17.465 11.9303 18.0032 9.99905 18C7.99594 18 6.11558 17.4323 4.49462 16.4389C4.47089 16.2109 4.45949 15.9816 4.46047 15.752M12.7683 3.95652C12.7683 4.74064 12.4766 5.49264 11.9572 6.04709C11.4379 6.60155 10.7335 6.91304 9.99905 6.91304C9.26455 6.91304 8.56022 6.60155 8.04089 6.04709C7.52156 5.49264 7.22976 4.74064 7.22976 3.95652C7.22976 3.1724 7.52156 2.4204 8.04089 1.86594C8.56022 1.31149 9.26455 1 9.99905 1C10.7335 1 11.4379 1.31149 11.9572 1.86594C12.4766 2.4204 12.7683 3.1724 12.7683 3.95652ZM18.3069 6.91304C18.3069 7.20426 18.2532 7.49261 18.1488 7.76156C18.0444 8.0306 17.8914 8.27511 17.6986 8.48098C17.5057 8.68685 17.2767 8.85025 17.0247 8.96161C16.7727 9.07307 16.5027 9.13043 16.23 9.13043C15.9572 9.13043 15.6871 9.07307 15.4352 8.96161C15.1832 8.85025 14.9541 8.68685 14.7613 8.48098C14.5685 8.27511 14.4154 8.0306 14.3111 7.76156C14.2067 7.49261 14.153 7.20426 14.153 6.91304C14.153 6.32495 14.3718 5.76095 14.7613 5.34511C15.1509 4.92926 15.6791 4.69565 16.23 4.69565C16.7808 4.69565 17.3091 4.92926 17.6986 5.34511C18.0881 5.76095 18.3069 6.32495 18.3069 6.91304ZM5.84511 6.91304C5.84511 7.20426 5.79139 7.49261 5.68701 7.76156C5.58263 8.0306 5.42965 8.27511 5.23678 8.48098C5.04392 8.68685 4.81496 8.85025 4.56297 8.96161C4.31097 9.07307 4.04089 9.13043 3.76815 9.13043C3.49539 9.13043 3.22531 9.07307 2.97333 8.96161C2.72134 8.85025 2.49237 8.68685 2.29951 8.48098C2.10665 8.27511 1.95365 8.0306 1.84928 7.76156C1.74491 7.49261 1.69118 7.20426 1.69118 6.91304C1.69118 6.32495 1.91 5.76095 2.29951 5.34511C2.68902 4.92926 3.2173 4.69565 3.76815 4.69565C4.319 4.69565 4.84727 4.92926 5.23678 5.34511C5.62629 5.76095 5.84511 6.32495 5.84511 6.91304Z" stroke="white" stroke-linecap="round" stroke-linejoin="round"/>
</svg>
