<svg width="25" height="24" viewBox="0 0 25 24" fill="none" xmlns="http://www.w3.org/2000/svg">
<path d="M17.8776 15.521C18.3454 15.2015 18.8941 15.0211 19.4601 15.0004C20.0262 14.9798 20.5866 15.1199 21.0764 15.4044C21.5662 15.689 21.9654 16.1064 22.2279 16.6084C22.4904 17.1104 22.6054 17.6764 22.5596 18.241C21.3598 18.6603 20.0854 18.8235 18.8186 18.72C18.8147 17.5866 18.4883 16.4768 17.8776 15.522C17.3355 14.6718 16.5877 13.972 15.7034 13.4875C14.8191 13.003 13.8269 12.7493 12.8186 12.75C11.8104 12.7495 10.8184 13.0032 9.93432 13.4877C9.05022 13.9723 8.30259 14.6719 7.76059 15.522M18.8176 18.719L18.8186 18.75C18.8186 18.975 18.8066 19.197 18.7816 19.416C16.9669 20.4571 14.9107 21.0033 12.8186 21C10.6486 21 8.61159 20.424 6.85559 19.416C6.82988 19.1846 6.81753 18.9519 6.81859 18.719M6.81859 18.719C5.55222 18.8263 4.2785 18.6637 3.07959 18.242C3.03394 17.6776 3.14898 17.1117 3.41142 16.6099C3.67385 16.1081 4.07296 15.6908 4.56259 15.4063C5.05222 15.1218 5.61238 14.9817 6.17831 15.0021C6.74423 15.0226 7.2928 15.2028 7.76059 15.522M6.81859 18.719C6.82218 17.5857 7.15021 16.4769 7.76059 15.522M15.8186 6.75C15.8186 7.54565 15.5025 8.30871 14.9399 8.87132C14.3773 9.43393 13.6142 9.75 12.8186 9.75C12.0229 9.75 11.2599 9.43393 10.6973 8.87132C10.1347 8.30871 9.81859 7.54565 9.81859 6.75C9.81859 5.95435 10.1347 5.19129 10.6973 4.62868C11.2599 4.06607 12.0229 3.75 12.8186 3.75C13.6142 3.75 14.3773 4.06607 14.9399 4.62868C15.5025 5.19129 15.8186 5.95435 15.8186 6.75ZM21.8186 9.75C21.8186 10.0455 21.7604 10.3381 21.6473 10.611C21.5342 10.884 21.3685 11.1321 21.1596 11.341C20.9506 11.5499 20.7026 11.7157 20.4296 11.8287C20.1566 11.9418 19.8641 12 19.5686 12C19.2731 12 18.9805 11.9418 18.7076 11.8287C18.4346 11.7157 18.1865 11.5499 17.9776 11.341C17.7687 11.1321 17.6029 10.884 17.4899 10.611C17.3768 10.3381 17.3186 10.0455 17.3186 9.75C17.3186 9.15326 17.5556 8.58097 17.9776 8.15901C18.3996 7.73705 18.9719 7.5 19.5686 7.5C20.1653 7.5 20.7376 7.73705 21.1596 8.15901C21.5815 8.58097 21.8186 9.15326 21.8186 9.75ZM8.31859 9.75C8.31859 10.0455 8.26039 10.3381 8.14732 10.611C8.03424 10.884 7.86851 11.1321 7.65958 11.341C7.45065 11.5499 7.20261 11.7157 6.92963 11.8287C6.65664 11.9418 6.36406 12 6.06859 12C5.77311 12 5.48053 11.9418 5.20755 11.8287C4.93457 11.7157 4.68653 11.5499 4.4776 11.341C4.26867 11.1321 4.10293 10.884 3.98986 10.611C3.87679 10.3381 3.81859 10.0455 3.81859 9.75C3.81859 9.15326 4.05564 8.58097 4.4776 8.15901C4.89956 7.73705 5.47185 7.5 6.06859 7.5C6.66533 7.5 7.23762 7.73705 7.65958 8.15901C8.08154 8.58097 8.31859 9.15326 8.31859 9.75Z" stroke="white" stroke-linecap="round" stroke-linejoin="round"/>
</svg>
