<svg width="20" height="20" viewBox="0 0 20 20" fill="none" xmlns="http://www.w3.org/2000/svg">
<path d="M13 19V13.9994C13 12.3424 11.6568 10.9991 10 10.9991C8.34319 10.9991 7 12.3424 7 13.9994V19M5.60561 3.64858L3.0056 6.1044C2.26632 6.8027 1.89667 7.15184 1.63191 7.56517C1.39721 7.93151 1.22385 8.33376 1.11867 8.756C1 9.23233 1 9.74079 1 10.7578V12.5993C1 14.8398 1 15.9599 1.43598 16.8157C1.81947 17.5684 2.43139 18.1805 3.18404 18.564C4.03969 19 5.15979 19 7.39999 19H12.6C14.8402 19 15.9603 19 16.816 18.564C17.5686 18.1805 18.1805 17.5684 18.564 16.8157C19 15.9599 19 14.8398 19 12.5993V10.7578C19 9.74079 19 9.23233 18.8814 8.756C18.7762 8.33376 18.6028 7.93151 18.3681 7.56517C18.1033 7.15184 17.7337 6.8027 16.9943 6.1044L14.3944 3.64858C12.8479 2.18784 12.0747 1.45747 11.1925 1.18192C10.416 0.93936 9.58402 0.93936 8.8075 1.18192C7.92541 1.45747 7.15211 2.18784 5.60561 3.64858Z" stroke="white" stroke-linecap="round" stroke-linejoin="round"/>
</svg>
