<svg width="24" height="24" viewBox="0 0 24 24" fill="none" xmlns="http://www.w3.org/2000/svg">
<path d="M16.3333 22.9998V17.4442C16.3333 15.6033 14.8409 14.1109 13 14.1109C11.1591 14.1109 9.66667 15.6033 9.66667 17.4442V22.9998M8.11735 5.9445L5.22845 8.6729C4.40702 9.4487 3.9963 9.83659 3.70212 10.2958C3.44134 10.7028 3.24872 11.1497 3.13185 11.6188C3 12.148 3 12.7129 3 13.8428V15.8887C3 18.3778 3 19.6223 3.48442 20.5731C3.91052 21.4093 4.59043 22.0893 5.42671 22.5154C6.37743 22.9998 7.62199 22.9998 10.1111 22.9998H15.8889C18.378 22.9998 19.6226 22.9998 20.5733 22.5154C21.4096 22.0893 22.0895 21.4093 22.5156 20.5731C23 19.6223 23 18.3778 23 15.8887V13.8428C23 12.7129 23 12.148 22.8682 11.6188C22.7513 11.1497 22.5587 10.7028 22.2979 10.2958C22.0037 9.83659 21.593 9.4487 20.7715 8.6729L17.8827 5.9445C16.1643 4.32163 15.3052 3.51019 14.325 3.20406C13.4622 2.93458 12.5378 2.93458 11.675 3.20406C10.6949 3.51019 9.83568 4.32163 8.11735 5.9445Z" stroke="white" stroke-linecap="round" stroke-linejoin="round"/>
</svg>
