<svg width="22" height="22" viewBox="0 0 22 22" fill="none" xmlns="http://www.w3.org/2000/svg">
<path d="M14.3333 20.9998V15.4442C14.3333 13.6033 12.8409 12.1109 11 12.1109C9.1591 12.1109 7.66667 13.6033 7.66667 15.4442V20.9998M6.11735 3.9445L3.22845 6.6729C2.40702 7.4487 1.9963 7.83659 1.70212 8.2958C1.44134 8.7028 1.24872 9.1497 1.13185 9.6188C1 10.148 1 10.7129 1 11.8428V13.8887C1 16.3778 1 17.6223 1.48442 18.5731C1.91052 19.4093 2.59043 20.0893 3.42671 20.5154C4.37743 20.9998 5.62199 20.9998 8.1111 20.9998H13.8889C16.378 20.9998 17.6226 20.9998 18.5733 20.5154C19.4096 20.0893 20.0895 19.4093 20.5156 18.5731C21 17.6223 21 16.3778 21 13.8887V11.8428C21 10.7129 21 10.148 20.8682 9.6188C20.7513 9.1497 20.5587 8.7028 20.2979 8.2958C20.0037 7.83659 19.593 7.4487 18.7715 6.6729L15.8827 3.9445C14.1643 2.32163 13.3052 1.51019 12.325 1.20406C11.4622 0.934583 10.5378 0.934583 9.675 1.20406C8.6949 1.51019 7.83568 2.32163 6.11735 3.9445Z" stroke="white" stroke-linecap="round" stroke-linejoin="round"/>
</svg>
