<svg width="21" height="20" viewBox="0 0 21 20" fill="none" xmlns="http://www.w3.org/2000/svg">
<g clip-path="url(#clip0_148_5308)">
<path d="M20.5686 6.41659L17.9853 1.74992C17.5686 1.16659 16.9853 0.833252 16.2353 0.833252H5.48528C4.81861 0.833252 4.15194 1.16659 3.73527 1.74992L1.15193 6.41659C0.901932 6.74993 0.818604 7.08325 0.818604 7.49992C0.818604 8.24992 1.15194 8.91657 1.65194 9.41657C1.65194 9.49991 1.65194 9.49992 1.65194 9.58325V13.7499C1.65194 14.9166 2.5686 15.8333 3.73527 15.8333H9.15194V16.6666H7.0686C5.90194 16.6666 4.98527 17.5833 4.98527 18.7499C4.98527 18.9999 5.15194 19.1666 5.40194 19.1666H16.2353C16.4853 19.1666 16.6519 18.9999 16.6519 18.7499C16.6519 17.5833 15.7353 16.6666 14.5686 16.6666H12.4853V15.8333H17.9019C19.0686 15.8333 19.9853 14.9166 19.9853 13.7499V9.66659C20.4853 9.49992 20.8186 9.16658 20.8186 8.33325V7.49992C20.9019 7.08325 20.8186 6.66659 20.5686 6.41659ZM14.3186 1.58325L16.2353 7.58326C16.2353 8.41659 15.5686 8.99991 14.7353 8.99991C13.9019 8.99991 13.2353 8.33325 13.2353 7.49992L12.6519 1.58325H14.3186ZM10.0686 1.58325H11.8186L12.4853 7.58326C12.4853 8.41659 11.8186 9.08325 10.9853 9.08325C10.1519 9.08325 9.48526 8.41659 9.48526 7.58326L10.0686 1.58325ZM10.9019 9.83324C11.7353 9.83324 12.4019 9.41659 12.8186 8.83326C13.2353 9.41659 13.9019 9.83324 14.7353 9.83324C15.5686 9.83324 16.2353 9.41659 16.6519 8.83326C16.8186 8.99992 16.9019 9.16659 17.1519 9.33326C17.7353 9.74993 18.4019 9.91659 19.1519 9.74993H19.2353V12.4166H2.56861V9.74993H2.65193C3.40193 9.91659 4.06861 9.74993 4.65194 9.33326C4.81861 9.16659 4.98527 8.99992 5.15193 8.83326C5.5686 9.41659 6.23527 9.83324 7.0686 9.83324C7.90194 9.83324 8.56861 9.41659 8.98527 8.83326C9.40194 9.41659 10.0686 9.83324 10.9019 9.83324ZM9.15194 1.58325L8.56861 7.49992C8.56861 8.33325 7.90194 8.99991 7.0686 8.99991C6.23527 8.99991 5.5686 8.33326 5.5686 7.58326L7.48527 1.58325H9.15194ZM1.73528 7.41658C1.73528 7.16658 1.81861 6.99992 1.90194 6.74992L4.48527 2.08325C4.73527 1.74992 5.06861 1.49991 5.48528 1.49991H6.5686L4.73527 7.33324C4.73527 7.33324 4.73527 7.33325 4.73527 7.41658C4.73527 7.41658 4.73527 7.41658 4.73527 7.49992C4.73527 7.99992 4.5686 8.41658 4.15194 8.66658C3.8186 8.91658 3.3186 9.08326 2.8186 8.91659C2.23527 8.83326 1.73528 8.16658 1.73528 7.41658ZM14.6519 17.4166C15.2353 17.4166 15.6519 17.7499 15.8186 18.2499H5.98527C6.15193 17.7499 6.65194 17.4166 7.15194 17.4166H14.6519ZM10.0686 16.5832V15.7499H11.7353V16.5832H10.0686ZM19.2353 13.6666C19.2353 14.3332 18.6519 14.9166 17.9853 14.9166H3.81861C3.15194 14.9166 2.56861 14.3332 2.56861 13.6666V13.2499H19.2353V13.6666ZM19.1519 8.91659L18.9019 8.99991C18.4019 9.08324 17.9853 8.99992 17.5686 8.74992C17.2353 8.49992 16.9853 7.99992 16.9853 7.58326C16.9853 7.58326 16.9853 7.58325 16.9853 7.49992C16.9853 7.49992 16.9853 7.49991 16.9853 7.41658L15.1519 1.58325H16.2353C16.6519 1.58325 17.0686 1.83325 17.2353 2.08325L19.8186 6.74992C19.9853 6.91659 19.9853 7.16658 19.9853 7.41658L20.0686 8.24991C20.0686 8.66658 19.9853 8.74993 19.1519 8.91659Z" fill="white"/>
</g>
<defs>
<clipPath id="clip0_148_5308">
<rect width="20" height="20" fill="white" transform="translate(0.818604)"/>
</clipPath>
</defs>
</svg>
