<svg width="32" height="32" viewBox="0 0 32 32" fill="none" xmlns="http://www.w3.org/2000/svg">
<path d="M9.33333 22.6667C14.488 22.6667 18.6667 18.488 18.6667 13.3333C18.6667 8.17868 14.488 4 9.33333 4C4.17868 4 0 8.17868 0 13.3333C0 18.488 4.17868 22.6667 9.33333 22.6667Z" fill="white" fill-opacity="0.7"/>
<path d="M22.6666 22.6667C27.8212 22.6667 31.9999 18.488 31.9999 13.3333C31.9999 8.17868 27.8212 4 22.6666 4C17.5119 4 13.3333 8.17868 13.3333 13.3333C13.3333 18.488 17.5119 22.6667 22.6666 22.6667Z" fill="white" fill-opacity="0.5"/>
<path d="M31.3697 28.0075V28.0692H31.4294C31.4406 28.0694 31.4516 28.0667 31.4614 28.0613C31.4653 28.0587 31.4684 28.0551 31.4705 28.051C31.4726 28.0469 31.4736 28.0423 31.4734 28.0377C31.4736 28.0332 31.4726 28.0288 31.4705 28.0247C31.4684 28.0207 31.4653 28.0173 31.4614 28.0148C31.4518 28.0092 31.4406 28.0064 31.4294 28.0069H31.3697V28.0075ZM31.43 27.9639C31.4556 27.9623 31.4809 27.9694 31.5017 27.9839C31.51 27.9905 31.5166 27.9988 31.521 28.0083C31.5254 28.0178 31.5274 28.0281 31.5268 28.0385C31.5272 28.0474 31.5256 28.0563 31.5221 28.0646C31.5187 28.0729 31.5134 28.0803 31.5067 28.0865C31.4907 28.0999 31.4706 28.108 31.4494 28.1095L31.5294 28.1974H31.4678L31.3942 28.1101H31.3703V28.1974H31.3188V27.964H31.4308L31.43 27.9639ZM31.414 28.2779C31.441 28.2781 31.4678 28.2729 31.4926 28.2625C31.5165 28.2526 31.5382 28.2384 31.5566 28.2207C31.575 28.203 31.5897 28.182 31.5999 28.159C31.6209 28.1101 31.6209 28.0552 31.5999 28.0063C31.5896 27.9833 31.5749 27.9624 31.5566 27.9446C31.5382 27.9269 31.5165 27.9127 31.4926 27.9028C31.4677 27.8929 31.441 27.888 31.414 27.8883C31.3866 27.888 31.3595 27.893 31.334 27.9028C31.3096 27.9125 31.2874 27.9267 31.2686 27.9446C31.2403 27.9726 31.2211 28.008 31.2135 28.0464C31.206 28.0847 31.2102 28.1244 31.2259 28.1605C31.2356 28.1837 31.2501 28.2047 31.2686 28.2222C31.2874 28.2401 31.3096 28.2543 31.334 28.264C31.3593 28.2744 31.3865 28.2797 31.414 28.2794V28.2779ZM31.414 27.8321C31.4843 27.8321 31.5519 27.8587 31.602 27.9062C31.6262 27.929 31.6455 27.9562 31.6587 27.9862C31.6723 28.0171 31.6794 28.0502 31.6794 28.0838C31.6794 28.1173 31.6723 28.1505 31.6587 28.1813C31.6452 28.2112 31.6259 28.2384 31.602 28.2614C31.5775 28.2841 31.5489 28.3024 31.5177 28.3154C31.4849 28.3288 31.4496 28.3356 31.414 28.3354C31.378 28.3357 31.3423 28.3288 31.3091 28.3154C31.2775 28.3027 31.2487 28.2843 31.2241 28.2614C31.2002 28.2375 31.1812 28.2094 31.1683 28.1787C31.1546 28.1479 31.1475 28.1147 31.1475 28.0812C31.1475 28.0476 31.1546 28.0144 31.1683 27.9836C31.1815 27.9536 31.2007 27.9264 31.2249 27.9036C31.2491 27.8802 31.278 27.8618 31.3099 27.8496C31.3431 27.8361 31.3788 27.8293 31.4148 27.8295L31.414 27.8321ZM6.91483 26.9309C6.91483 26.4859 7.21723 26.1204 7.71147 26.1204C8.18379 26.1204 8.50251 26.4702 8.50251 26.9309C8.50251 27.3916 8.18379 27.7414 7.71147 27.7414C7.21723 27.7414 6.91483 27.3759 6.91483 26.9309V26.9309ZM9.04091 26.9309V25.6646H8.46987V25.9731C8.28875 25.7451 8.01403 25.6022 7.64043 25.6022C6.90443 25.6022 6.32683 26.1587 6.32683 26.9315C6.32683 27.7044 6.90411 28.2609 7.64043 28.2609C8.01387 28.2609 8.28875 28.1178 8.46987 27.89V28.1974H9.04027V26.9309H9.04091ZM28.3356 26.9309C28.3356 26.4859 28.638 26.1204 29.1324 26.1204C29.6052 26.1204 29.9235 26.4702 29.9235 26.9309C29.9235 27.3916 29.6052 27.7414 29.1324 27.7414C28.6382 27.7414 28.3356 27.3759 28.3356 26.9309ZM30.4623 26.9309V24.6482H29.8908V25.9731C29.7097 25.7451 29.435 25.6022 29.0614 25.6022C28.3254 25.6022 27.7478 26.1587 27.7478 26.9315C27.7478 27.7044 28.3251 28.2609 29.0614 28.2609C29.435 28.2609 29.7097 28.1178 29.8908 27.89V28.1974H30.4623V26.9309ZM16.1283 26.0943C16.4963 26.0943 16.7326 26.3167 16.7929 26.7084H15.4303C15.4913 26.3428 15.7215 26.0943 16.1284 26.0943H16.1283ZM16.1398 25.6008C15.3702 25.6008 14.8318 26.1406 14.8318 26.9302C14.8318 27.7351 15.3918 28.2595 16.178 28.2595C16.5735 28.2595 16.9358 28.1644 17.2545 27.9048L16.9747 27.4968C16.7545 27.6665 16.4742 27.7617 16.2107 27.7617C15.8427 27.7617 15.5076 27.5974 15.4252 27.1416H17.3751C17.3807 27.0731 17.3865 27.004 17.3865 26.93C17.3807 26.1408 16.8745 25.6006 16.1395 25.6006L16.1398 25.6008ZM23.0339 26.93C23.0339 26.485 23.3363 26.1195 23.8305 26.1195C24.3028 26.1195 24.6215 26.4693 24.6215 26.93C24.6215 27.3907 24.3028 27.7405 23.8305 27.7405C23.3363 27.7405 23.0337 27.375 23.0337 26.93H23.0339ZM25.1598 26.93V25.6646H24.5891V25.9731C24.4073 25.7451 24.1332 25.6022 23.7596 25.6022C23.0236 25.6022 22.446 26.1587 22.446 26.9315C22.446 27.7044 23.0233 28.2609 23.7596 28.2609C24.1332 28.2609 24.4073 28.1178 24.5891 27.89V28.1974H25.1599V26.9309L25.1598 26.93ZM19.8091 26.93C19.8091 27.698 20.3636 28.2594 21.21 28.2594C21.6055 28.2594 21.8691 28.1745 22.154 27.9575L21.8798 27.5126C21.6654 27.6611 21.4403 27.7405 21.1918 27.7405C20.7359 27.7351 20.4007 27.4174 20.4007 26.93C20.4007 26.4426 20.7359 26.125 21.1918 26.1195C21.4396 26.1195 21.6647 26.1989 21.8798 26.3474L22.154 25.9025C21.8686 25.6854 21.6051 25.6006 21.21 25.6006C20.3636 25.6006 19.8091 26.1619 19.8091 26.93V26.93ZM27.1707 25.6006C26.8412 25.6006 26.6267 25.7491 26.4783 25.9716V25.6646H25.9124V28.196H26.4841V26.777C26.4841 26.3581 26.6708 26.1253 27.0441 26.1253C27.1663 26.1236 27.2877 26.1453 27.4012 26.189L27.5772 25.6702C27.4508 25.6222 27.286 25.6011 27.1703 25.6011L27.1707 25.6006ZM11.8641 25.8659C11.5894 25.6913 11.2108 25.6011 10.7932 25.6011C10.1279 25.6011 9.69963 25.9085 9.69963 26.4114C9.69963 26.8242 10.0185 27.0788 10.6057 27.1583L10.8755 27.1953C11.1886 27.2377 11.3364 27.3171 11.3364 27.4601C11.3364 27.6558 11.1284 27.7675 10.7379 27.7675C10.3423 27.7675 10.0569 27.6457 9.86443 27.5027L9.59611 27.9319C9.90923 28.1543 10.3047 28.2605 10.7331 28.2605C11.4915 28.2605 11.931 27.9162 11.931 27.4342C11.931 26.9892 11.5851 26.7565 11.0135 26.677L10.7444 26.6394C10.4972 26.6086 10.2991 26.5606 10.2991 26.3909C10.2991 26.2058 10.4859 26.0945 10.7991 26.0945C11.1343 26.0945 11.4588 26.2163 11.6179 26.3115L11.8651 25.8665L11.8641 25.8659ZM19.2323 25.6015C18.9028 25.6015 18.6883 25.7501 18.5406 25.9725V25.6646H17.9747V28.196H18.5457V26.777C18.5457 26.3581 18.7324 26.1253 19.1057 26.1253C19.2279 26.1236 19.3493 26.1453 19.4628 26.189L19.6388 25.6702C19.5124 25.6222 19.3476 25.6011 19.2319 25.6011L19.2323 25.6015ZM14.3593 25.6646H13.4255V24.8967H12.8483V25.6646H12.3156V26.1678H12.8483V27.3225C12.8483 27.9099 13.0847 28.2597 13.7603 28.2597C14.0081 28.2597 14.2935 28.1857 14.4747 28.064L14.3097 27.5926C14.1393 27.6878 13.9526 27.7357 13.8041 27.7357C13.5187 27.7357 13.4255 27.5661 13.4255 27.312V26.1682H14.3593V25.6646ZM5.82187 28.1966V26.6079C5.82187 26.0097 5.42635 25.6071 4.78875 25.6017C4.45355 25.5963 4.10779 25.6969 3.86571 26.0521C3.68459 25.7714 3.39915 25.6017 2.99787 25.6017C2.71739 25.6017 2.44331 25.6811 2.22875 25.9776V25.6646H1.65723V28.196H2.23323V26.7924C2.23323 26.353 2.48603 26.1195 2.87643 26.1195C3.25563 26.1195 3.44747 26.3578 3.44747 26.7869V28.1957H4.02475V26.7921C4.02475 26.3527 4.28827 26.1192 4.66731 26.1192C5.05723 26.1192 5.24331 26.3575 5.24331 26.7866V28.1954L5.82187 28.1966Z" fill="white"/>
</svg>
