<svg width="175" height="85" viewBox="0 0 175 85" fill="none" xmlns="http://www.w3.org/2000/svg">
<g clip-path="url(#clip0_573_15030)">
<mask id="mask0_573_15030" style="mask-type:alpha" maskUnits="userSpaceOnUse" x="0" y="0" width="175" height="85">
<path d="M151 0H24C10.7452 0 0 10.7452 0 24V61C0 74.2548 10.7452 85 24 85H151C164.255 85 175 74.2548 175 61V24C175 10.7452 164.255 0 151 0Z" fill="#EF8767"/>
</mask>
<g mask="url(#mask0_573_15030)">
<path fill-rule="evenodd" clip-rule="evenodd" d="M38 268.173C38 279.565 47.2358 288.802 58.6288 288.802H122.578C144.252 288.802 163.797 279.685 177.588 265.077C191.379 279.685 210.924 288.802 232.598 288.802H295.859C337.634 288.802 371.498 254.938 371.498 213.163C371.498 201.771 362.262 192.534 350.869 192.534C339.477 192.534 330.241 201.771 330.241 213.163C330.241 232.151 314.847 247.544 295.859 247.544H232.598C213.61 247.544 198.217 232.151 198.217 213.163V74.2632C198.217 33.2493 164.967 0 123.953 0V41.2574C142.182 41.2574 156.959 56.0344 156.959 74.2632V213.163C156.959 232.151 141.566 247.544 122.578 247.544H58.6288C47.2358 247.544 38 256.78 38 268.173Z" fill="#FCBE36"/>
<path fill-rule="evenodd" clip-rule="evenodd" d="M101.13 120.764C101.13 101.752 85.722 86.3385 66.7147 86.3385C47.7074 86.3385 32.2989 101.752 32.2989 120.764C32.2989 139.777 47.7074 155.19 66.7147 155.19C85.722 155.19 101.13 139.777 101.13 120.764ZM66.7147 45.0275C108.531 45.0275 142.429 78.9356 142.429 120.764C142.429 162.593 108.531 196.501 66.7147 196.501C24.8986 196.501 -9 162.593 -9 120.764C-9 78.9356 24.8986 45.0275 66.7147 45.0275Z" fill="#FCBE36"/>
</g>
</g>
<defs>
<clipPath id="clip0_573_15030">
<rect width="175" height="85" fill="white"/>
</clipPath>
</defs>
</svg>
