<svg width="21" height="22" viewBox="0 0 21 22" fill="none" xmlns="http://www.w3.org/2000/svg">
<path d="M8.64511 21.0001V16.8835C8.64511 16.1484 8.28049 15.4603 7.66889 15.0545L6.88086 14.5312L5.94581 13.5961C5.48711 13.1374 4.74024 13.1374 4.28154 13.5961L3.93457 13.9431M5.11657 21V18.6477L1 14.5311V9.2384C1.9821 9.2384 2.73484 10.0206 2.76425 11.0026V12.7669L5.70465 15.7073M10.4094 4.53369V9.23835M12.7615 6.88599H8.05688M12.1736 21.0001V16.8835C12.1736 16.1484 12.5382 15.4603 13.1498 15.0545L13.9378 14.5312L14.8729 13.5961C15.3316 13.1374 16.0784 13.1374 16.5372 13.5961L16.8841 13.9431M15.7021 21V18.6477L19.8187 14.5311V9.2384C18.8366 9.2384 18.0838 10.0206 18.0544 11.0026V12.7669L15.114 15.7073M10.4093 2.85768C11.0386 1.63447 12.3853 0.840558 13.8967 1.02874C15.6256 1.24633 16.8782 2.79299 16.8782 4.53371C16.8782 6.40969 16.1314 8.2151 14.8023 9.54417L10.4093 13.9371L6.01636 9.54417C4.68729 8.2151 3.94043 6.41557 3.94043 4.53371C3.94043 2.6989 5.34006 1.10519 7.17488 1.00522C8.58039 0.928769 9.81537 1.69916 10.4093 2.8518V2.85768Z" stroke="white" stroke-linecap="round" stroke-linejoin="round"/>
</svg>
