<svg width="18" height="20" viewBox="0 0 20 20" fill="none" xmlns="http://www.w3.org/2000/svg">
<path d="M7.50001 19V15.2951C7.50001 14.6335 7.19 14.0142 6.67001 13.649L6.00001 13.178L5.20502 12.3364C4.81502 11.9236 4.18002 11.9236 3.79002 12.3364L3.49502 12.6487M4.49998 18.9999V16.8829L1 13.1779V8.41452C1.835 8.41452 2.47499 9.1185 2.5 10.0023V11.5902L4.99998 14.2365M9.00004 4.18031V8.41448M10.9998 6.29737H6.99989M10.5 19V15.2951C10.5 14.6335 10.81 14.0142 11.33 13.649L12 13.178L12.795 12.3364C13.185 11.9236 13.8199 11.9236 14.21 12.3364L14.5049 12.6487M13.5 18.9999V16.8829L17 13.1779V8.41452C16.165 8.41452 15.525 9.1185 15.5 10.0023V11.5902L13 14.2365M8.99996 2.6719C9.535 1.57102 10.68 0.856503 11.965 1.02587C13.4349 1.2217 14.4999 2.61368 14.4999 4.18032C14.4999 5.8687 13.865 7.49356 12.735 8.68972L8.99996 12.6433L5.265 8.68972C4.135 7.49356 3.50001 5.87399 3.50001 4.18032C3.50001 2.529 4.69 1.09467 6.24999 1.0047C7.44498 0.935892 8.49499 1.62924 8.99996 2.66661V2.6719Z" stroke="white" stroke-linecap="round" stroke-linejoin="round"/>
</svg>
