<svg width="21" height="19" viewBox="0 0 20 20" fill="none" xmlns="http://www.w3.org/2000/svg">
<path d="M19.75 5.58334L17.1667 0.916668C16.75 0.333338 16.1667 0 15.4167 0H4.66668C4.00001 0 3.33334 0.333338 2.91667 0.916668L0.333326 5.58334C0.083328 5.91668 0 6.25 0 6.66667C0 7.41667 0.333336 8.08332 0.833336 8.58332C0.833336 8.66666 0.833336 8.66667 0.833336 8.75V12.9166C0.833336 14.0833 1.75 15 2.91667 15H8.33334V15.8333H6.25C5.08334 15.8333 4.16667 16.75 4.16667 17.9166C4.16667 18.1666 4.33334 18.3333 4.58334 18.3333H15.4167C15.6667 18.3333 15.8333 18.1666 15.8333 17.9166C15.8333 16.75 14.9167 15.8333 13.75 15.8333H11.6667V15H17.0833C18.25 15 19.1667 14.0833 19.1667 12.9166V8.83334C19.6667 8.66667 20 8.33333 20 7.5V6.66667C20.0833 6.25 20 5.83334 19.75 5.58334ZM13.5 0.749998L15.4167 6.75001C15.4167 7.58334 14.75 8.16666 13.9167 8.16666C13.0833 8.16666 12.4167 7.5 12.4167 6.66667L11.8333 0.749998H13.5ZM9.25 0.749998H11L11.6667 6.75001C11.6667 7.58334 11 8.25 10.1667 8.25C9.3333 8.25 8.66666 7.58334 8.66666 6.75001L9.25 0.749998ZM10.0833 8.99999C10.9167 8.99999 11.5833 8.58334 12 8.00001C12.4167 8.58334 13.0833 8.99999 13.9167 8.99999C14.75 8.99999 15.4167 8.58334 15.8333 8.00001C16 8.16667 16.0833 8.33334 16.3333 8.50001C16.9167 8.91668 17.5833 9.08334 18.3333 8.91668H18.4167V11.5833H1.75001V8.91668H1.83333C2.58333 9.08334 3.25001 8.91668 3.83334 8.50001C4.00001 8.33334 4.16667 8.16667 4.33333 8.00001C4.75 8.58334 5.41667 8.99999 6.25 8.99999C7.08334 8.99999 7.75001 8.58334 8.16667 8.00001C8.58334 8.58334 9.25 8.99999 10.0833 8.99999ZM8.33334 0.749998L7.75001 6.66667C7.75001 7.5 7.08334 8.16666 6.25 8.16666C5.41667 8.16666 4.75 7.50001 4.75 6.75001L6.66667 0.749998H8.33334ZM0.916676 6.58333C0.916676 6.33333 1.00001 6.16667 1.08334 5.91667L3.66667 1.25C3.91667 0.916668 4.25001 0.666658 4.66668 0.666658H5.75L3.91667 6.49999C3.91667 6.49999 3.91667 6.5 3.91667 6.58333C3.91667 6.58333 3.91667 6.58333 3.91667 6.66667C3.91667 7.16667 3.75 7.58333 3.33334 7.83333C3 8.08333 2.5 8.25001 2 8.08334C1.41667 8.00001 0.916676 7.33333 0.916676 6.58333ZM13.8333 16.5833C14.4167 16.5833 14.8333 16.9166 15 17.4166H5.16667C5.33333 16.9166 5.83334 16.5833 6.33334 16.5833H13.8333ZM9.25 15.7499V14.9166H10.9167V15.7499H9.25ZM18.4167 12.8333C18.4167 13.4999 17.8333 14.0833 17.1667 14.0833H3.00001C2.33334 14.0833 1.75001 13.4999 1.75001 12.8333V12.4166H18.4167V12.8333ZM18.3333 8.08334L18.0833 8.16666C17.5833 8.24999 17.1667 8.16667 16.75 7.91667C16.4167 7.66667 16.1667 7.16667 16.1667 6.75001C16.1667 6.75001 16.1667 6.75 16.1667 6.66667C16.1667 6.66667 16.1667 6.66666 16.1667 6.58333L14.3333 0.749998H15.4167C15.8333 0.749998 16.25 0.999998 16.4167 1.25L19 5.91667C19.1667 6.08334 19.1667 6.33333 19.1667 6.58333L19.25 7.41666C19.25 7.83333 19.1667 7.91668 18.3333 8.08334Z" fill="white"/>
</svg>
